{
.appVersion = "3108";
.formatVersion = 3;
axes = (
{
name = Weight;
tag = wght;
},
{
name = Width;
tag = wdth;
}
);
customParameters = (
{
name = "Enforce Compatibility Check";
value = 1;
},
{
name = "Variable Font Origin";
value = m002;
},
{
name = "MakeOTF Compatibility Mode";
value = 1;
}
);
date = "2022-01-20 02:12:52 +0000";
familyName = "QLD Handwriting Font";
fontMaster = (
{
axesValues = (
400,
90
);
iconName = SemiLight;
id = m002;
metricValues = (
{
over = 16;
pos = 700;
},
{
over = 16;
pos = 650;
},
{
over = 16;
pos = 350;
},
{
over = -16;
},
{
over = -16;
pos = -300;
},
{
over = -16;
}
);
name = Regular;
stemValues = (
13,
13
);
userData = {
GSExtrudeAngle = 30;
GSExtrudeOffset = 15;
};
visible = 1;
},
{
axesValues = (
600,
100
);
guides = (
{
pos = (297,178);
},
{
pos = (342,334);
},
{
angle = 180;
pos = (646,673);
},
{
pos = (726,16);
},
{
angle = 79.6872;
pos = (55,350);
}
);
iconName = SemiBold;
id = m003;
metricValues = (
{
over = 16;
pos = 700;
},
{
over = 16;
pos = 650;
},
{
over = 16;
pos = 350;
},
{
over = -16;
},
{
over = -16;
pos = -300;
},
{
over = -16;
}
);
name = Bold;
stemValues = (
50,
50
);
userData = {
GSCornerRadius = 15;
GSExtrudeAngle = 30;
GSExtrudeOffset = 15;
};
visible = 1;
}
);
glyphs = (
{
glyphname = A;
kernLeft = "0";
kernRight = "0";
lastChange = "2022-02-01 08:25:17 +0000";
layers = (
{
background = {
backgroundImage = {
imagePath = "../../../../Volumes/Lexar/Mum Font/Handwriting Mum Fonts.png";
locked = 1;
pos = (-2523,-15909);
scale = (2.95,2.95);
};
};
layerId = m002;
shapes = (
{
closed = 1;
nodes = (
(-28,0,o),
(-28,2,o),
(-27,3,c,{
name = "🔷";
}),
(136,327,l),
(309,327,l),
(333,5,l,{
name = "🔷";
}),
(333,5,o),
(333,0,o),
(340,0,cs),
(346,0,o),
(346,4,o),
(346,6,cs),
(298,644,l),
(297,648,o),
(294,650,o),
(291,650,cs),
(284,650,o),
(283,647,o),
(282,645,cs,{
name = "🔷";
}),
(-39,9,ls),
(-41,5,o),
(-39,0,o),
(-33,0,cs)
);
},
{
closed = 1;
nodes = (
(286,625,l),
(308,340,l),
(143,340,l)
);
}
);
width = 416;
},
{
background = {
backgroundImage = {
imagePath = "../../../../Volumes/Lexar/Mum Font/Handwriting Mum Fonts.png";
locked = 1;
pos = (-2516,-15909);
scale = (2.95,2.95);
};
};
layerId = m003;
shapes = (
{
closed = 1;
nodes = (
(3,0,o),
(9,13,o),
(10,15,cs),
(159,310,l),
(295,310,l),
(318,18,l),
(321,7,o),
(330,0,o),
(341,0,cs),
(370,0,o),
(368,22,o),
(368,27,cs),
(318,629,ls,{
name = "💚";
}),
(317,641,o),
(304,650,o),
(292,650,cs),
(271,650,o),
(266,635,o),
(266,634,cs),
(-38,32,ls),
(-45,19,o),
(-32,0,o),
(-14,0,cs)
);
},
{
closed = 1;
nodes = (
(277,545,l),
(292,357,l),
(182,357,l)
);
}
);
width = 438;
}
);
metricLeft = "=N-70";
metricRight = "=N+40";
unicode = 65;
},
{
glyphname = B;
lastChange = "2022-02-01 11:39:00 +0000";
layers = (
{
layerId = m002;
shapes = (
{
closed = 1;
nodes = (
(198,0,ls),
(282,0,o),
(357,14,o),
(399,54,cs),
(452,105,o),
(456,154,o),
(451,196,cs),
(441,281,o),
(384,316,o),
(284,331,c),
(304,332,o),
(323,334,o),
(333,336,cs),
(403,351,o),
(480,423,o),
(471,500,cs),
(459,597,o),
(354,635,o),
(283,644,cs),
(229,651,o),
(155,652,o),
(128,645,cs),
(124,644,o),
(123,642,o),
(123,639,cs),
(123,631,o),
(127,632,o),
(129,632,cs),
(143,634,l),
(30,8,ls),
(29,3,o),
(31,0,o),
(36,0,cs)
);
},
{
closed = 1;
nodes = (
(101,328,l),
(212,328,o),
(263,321,o),
(288,317,cs),
(375,304,o),
(432,270,o),
(439,194,cs),
(443,153,o),
(442,117,o),
(389,64,cs),
(338,13,o),
(228,13,o),
(198,13,cs),
(44,13,l)
);
},
{
closed = 1;
nodes = (
(157,636,l),
(179,638,o),
(239,637,o),
(281,632,cs),
(346,624,o),
(450,585,o),
(459,498,cs),
(466,434,o),
(390,360,o),
(329,348,cs),
(280,338,o),
(197,341,o),
(103,341,c)
);
}
);
width = 532;
},
{
layerId = m003;
shapes = (
{
closed = 1;
nodes = (
(210,0,ls),
(292,0,o),
(370,13,o),
(414,55,cs),
(472,111,o),
(476,162,o),
(471,205,cs),
(462,279,o),
(413,320,o),
(376,332,c),
(399,343,o),
(422,356,o),
(436,372,cs),
(456,394,o),
(493,441,o),
(486,493,cs),
(471,597,o),
(364,635,o),
(292,645,cs),
(241,652,o),
(162,651,o),
(133,645,cs),
(118,642,o),
(109,632,o),
(109,620,cs),
(109,595,o),
(121,595,o),
(123,595,cs),
(133,595,l),
(31,28,ls),
(28,12,o),
(38,0,o),
(54,0,cs)
);
},
{
closed = 1;
nodes = (
(133,310,l),
(226,310,o),
(270,303,o),
(292,300,cs),
(367,289,o),
(413,271,o),
(421,199,cs),
(425,164,o),
(424,136,o),
(378,90,cs),
(338,50,o),
(247,50,o),
(210,50,cs),
(86,50,l)
);
},
{
closed = 1;
nodes = (
(185,600,l),
(193,600,o),
(261,598,o),
(286,595,cs),
(346,587,o),
(423,563,o),
(436,487,cs),
(442,454,o),
(417,422,o),
(386,396,cs),
(336,354,o),
(206,360,o),
(142,360,c)
);
}
);
width = 547;
}
);
metricLeft = N;
metricRight = "=O+30";
unicode = 66;
},
{
glyphname = C;
lastChange = "2022-02-01 12:46:21 +0000";
layers = (
{
layerId = m002;
shapes = (
{
closed = 1;
nodes = (
(191,0,o),
(276,79,o),
(303,133,cs),
(306,139,o),
(301,142,o),
(297,142,cs),
(294,142,o),
(293,141,o),
(291,138,cs),
(255,83,o),
(189,13,o),
(129,13,cs),
(71,13,o),
(42,68,o),
(42,143,cs),
(42,232,o),
(65,314,o),
(72,337,cs),
(78,358,ls),
(90,400,o),
(107,452,o),
(129,488,cs),
(197,598,o),
(278,635,o),
(417,635,cs),
(422,635,o),
(424,639,o),
(424,642,cs),
(424,645,o),
(422,649,o),
(419,649,cs,{
name = "❌";
}),
(281,649,o),
(193,614,o),
(117,494,cs),
(94,458,o),
(79,403,o),
(60,341,cs),
(51,312,o),
(27,208,o),
(29,143,cs),
(31,60,o),
(64,0,o),
(129,0,cs)
);
}
);
width = 424;
},
{
layerId = m003;
shapes = (
{
closed = 1;
nodes = (
(208,0,o),
(295,75,o),
(325,136,cs),
(334,154,o),
(321,170,o),
(303,170,cs),
(293,170,o),
(284,167,o),
(280,159,cs,{
name = "🔷";
}),
(259,117,o),
(190,50,o),
(145,50,cs),
(110,50,o),
(81,89,o),
(81,154,cs),
(81,222,o),
(110,331,o),
(111,333,cs),
(116,352,ls),
(127,393,o),
(139,437,o),
(159,469,cs),
(221,568,o),
(305,600,o),
(415,600,cs),
(430,600,o),
(440,613,o),
(440,626,cs),
(440,638,o),
(431,650,o),
(419,650,cs),
(288,650,o),
(187,609,o),
(116,495,cs),
(90,453,o),
(71,381,o),
(61,344,cs),
(54,316,o),
(29,217,o),
(31,153,cs),
(33,70,o),
(76,0,o),
(145,0,cs)
);
}
);
width = 440;
}
);
metricLeft = O;
unicode = 67;
},
{
glyphname = D;
lastChange = "2022-02-01 11:46:23 +0000";
layers = (
{
layerId = m002;
shapes = (
{
closed = 1;
nodes = (
(154,0,ls),
(214,0,o),
(352,44,o),
(421,127,cs),
(463,177,o),
(498,276,o),
(498,360,cs),
(498,454,o),
(484,545,o),
(418,599,cs),
(348,656,o),
(268,650,o),
(138,650,cs),
(135,650,o),
(131,646,o),
(131,643,cs),
(131,636,o),
(135,636,o),
(138,636,cs),
(142,636,l),
(30,7,ls),
(29,2,o),
(32,0,o),
(36,0,cs)
);
},
{
closed = 1;
nodes = (
(155,636,l),
(255,636,ls),
(260,636,o),
(351,637,o),
(410,589,cs),
(473,538,o),
(484,451,o),
(484,360,cs),
(484,277,o),
(455,188,o),
(411,135,cs),
(351,63,o),
(222,13,o),
(154,13,cs),
(44,13,l)
);
}
);
width = 558;
},
{
layerId = m003;
shapes = (
{
closed = 1;
nodes = (
(169,0,ls),
(261,0,o),
(382,59,o),
(438,126,cs),
(483,179,o),
(514,270,o),
(514,358,cs),
(514,458,o),
(503,537,o),
(430,598,cs),
(360,656,o),
(278,650,o),
(143,650,cs),
(130,650,o),
(118,639,o),
(118,626,cs),
(118,602,o),
(127,600,o),
(129,600,cs),
(134,599,l),
(30,27,ls),
(27,11,o),
(38,0,o),
(53,0,cs)
);
},
{
closed = 1;
nodes = (
(185,600,l),
(264,600,ls),
(272,600,o),
(346,600,o),
(399,559,cs),
(456,515,o),
(464,442,o),
(464,358,cs),
(464,282,o),
(437,203,o),
(398,156,cs),
(349,97,o),
(241,50,o),
(169,50,cs),
(85,50,l)
);
}
);
width = 574;
}
);
metricLeft = N;
metricRight = "=O+30";
unicode = 68;
},
{
glyphname = E;
lastChange = "2022-02-01 08:42:50 +0000";
layers = (
{
layerId = m002;
shapes = (
{
closed = 1;
nodes = (
(375,0,ls),
(379,0,o),
(381,2,o),
(381,6,cs),
(381,12,o),
(376,12,o),
(375,12,cs),
(44,12,l),
(101,328,l),
(401,328,ls),
(402,328,o),
(407,328,o),
(407,334,cs),
(407,340,o),
(402,340,o),
(401,340,cs),
(103,340,l),
(157,636,l),
(477,636,ls),
(478,636,o),
(483,636,o),
(483,643,cs),
(483,650,o),
(478,650,o),
(477,650,cs),
(137,650,ls),
(134,650,o),
(130,646,o),
(130,643,cs),
(130,636,o),
(134,636,o),
(137,636,cs),
(144,636,l),
(30,6,ls),
(29,2,o),
(31,0,o),
(36,0,cs)
);
}
);
width = 483;
},
{
layerId = m003;
shapes = (
{
closed = 1;
nodes = (
(378,0,ls),
(391,0,o),
(401,9,o),
(401,23,cs),
(401,50,o),
(382,50,o),
(378,50,cs),
(86,50,l),
(133,309,l),
(401,309,ls),
(403,309,o),
(426,309,o),
(426,334,cs),
(426,359,o),
(404,359,o),
(402,359,cs),
(142,359,l),
(186,600,l),
(473,600,ls),
(478,600,o),
(498,600,o),
(498,626,cs),
(498,650,o),
(476,650,o),
(474,650,cs),
(138,650,ls),
(117,650,o),
(114,638,o),
(114,626,cs,{
name = "🔷";
}),
(114,616,o),
(116,603,o),
(129,601,cs,{
name = "💚";
}),
(135,600,l),
(31,26,ls),
(28,12,o),
(35,0,o),
(60,0,cs)
);
}
);
width = 498;
}
);
metricLeft = N;
unicode = 69;
},
{
glyphname = F;
lastChange = "2022-02-01 08:25:17 +0000";
layers = (
{
layerId = m002;
shapes = (
{
closed = 1;
nodes = (
(41,0,o),
(42,3,o),
(43,7,cs,{
name = "🔷";
}),
(101,328,l),
(402,328,ls),
(403,328,o),
(409,328,o),
(409,334,cs),
(409,341,o),
(402,341,o),
(402,341,c,{
name = "🔷";
}),
(103,341,l),
(156,637,l),
(493,637,ls),
(494,637,o),
(500,637,o),
(500,644,cs),
(500,649,o),
(493,650,o),
(493,650,c,{
name = "🔷";
}),
(139,650,ls),
(136,650,o),
(132,648,o),
(132,643,cs),
(132,637,o),
(137,637,o),
(139,637,cs),
(144,637,l),
(30,6,ls),
(30,4,o),
(29,0,o),
(36,0,cs)
);
}
);
width = 500;
},
{
layerId = m003;
shapes = (
{
closed = 1;
nodes = (
(78,0,o),
(79,15,o),
(80,20,cs),
(132,309,l),
(404,309,ls),
(406,309,o),
(428,309,o),
(428,334,cs),
(428,359,o),
(408,359,o),
(404,359,cs),
(141,359,l),
(185,600,l),
(490,600,ls),
(495,600,o),
(514,600,o),
(514,626,cs),
(514,650,o),
(491,650,o),
(490,650,cs),
(144,650,ls),
(131,650,o),
(121,641,o),
(119,626,cs),
(117,614,o),
(120,606,o),
(125,601,c),
(135,600,l),
(31,25,ls),
(31,23,o),
(23,0,o),
(61,0,cs,{
name = "💚";
})
);
}
);
width = 514;
}
);
metricLeft = N;
unicode = 70;
},
{
glyphname = G;
lastChange = "2022-02-01 14:05:53 +0000";
layers = (
{
layerId = m002;
shapes = (
{
closed = 1;
nodes = (
(172,0,o),
(196,5,o),
(218,15,cs),
(280,43,o),
(343,103,o),
(399,184,cs),
(408,197,o),
(437,250,o),
(446,271,c),
(425,188,o),
(399,64,o),
(399,6,cs),
(399,2,o),
(403,0,o),
(406,0,cs),
(409,0,o),
(413,2,o),
(413,6,cs),
(413,77,o),
(453,250,o),
(472,325,cs),
(473,329,o),
(472,332,o),
(468,333,cs),
(461,335,o),
(460,332,o),
(459,330,cs),
(446,303,ls),
(441,292,o),
(411,223,o),
(388,190,cs),
(328,103,o),
(254,43,o),
(216,28,cs),
(206,24,ls),
(191,18,o),
(164,13,o),
(148,13,cs),
(54,13,o),
(28,166,o),
(47,293,cs),
(57,359,o),
(109,503,o),
(157,557,cs),
(219,626,o),
(324,637,o),
(409,637,cs),
(450,637,o),
(479,637,o),
(508,637,cs),
(513,637,o),
(520,637,o),
(520,643,cs),
(520,650,o),
(513,650,o),
(508,650,cs),
(482,650,o),
(450,650,o),
(409,650,cs),
(334,650,o),
(210,640,o),
(147,565,cs),
(89,496,o),
(46,367,o),
(36,301,cs),
(34,288,ls),
(14,155,o),
(49,0,o),
(148,0,cs)
);
}
);
width = 520;
},
{
layerId = m003;
shapes = (
{
closed = 1;
nodes = (
(217,0,o),
(238,6,o),
(260,18,cs),
(312,46,o),
(362,99,o),
(375,114,cs),
(394,136,o),
(399,141,o),
(411,161,c),
(404,122,o),
(397,89,o),
(392,22,cs),
(391,8,o),
(406,0,o),
(416,0,cs),
(431,0,o),
(441,10,o),
(442,22,cs),
(448,89,o),
(479,254,o),
(497,325,cs),
(499,333,o),
(493,348,o),
(480,350,cs),
(458,353,o),
(451,339,o),
(450,337,cs),
(438,309,ls),
(432,295,o),
(426,284,o),
(419,269,cs),
(380,184,o),
(298,88,o),
(237,62,cs),
(230,59,ls),
(219,54,o),
(198,49,o),
(183,51,cs),
(107,61,o),
(67,190,o),
(84,299,cs),
(95,372,o),
(102,408,o),
(158,505,cs),
(209,593,o),
(316,600,o),
(419,600,cs),
(458,600,o),
(503,600,o),
(521,600,cs),
(534,600,o),
(541,613,o),
(541,624,cs),
(541,638,o),
(534,650,o),
(521,650,cs),
(483,650,o),
(459,650,o),
(420,650,cs),
(284,650,o),
(178,632,o),
(116,532,cs),
(63,446,o),
(45,372,o),
(36,308,cs),
(34,294,ls),
(17,172,o),
(71,0,o),
(183,0,cs)
);
}
);
width = 541;
}
);
metricLeft = O;
unicode = 71;
},
{
glyphname = H;
lastChange = "2022-02-01 13:10:38 +0000";
layers = (
{
layerId = m002;
shapes = (
{
closed = 1;
nodes = (
(43,0,o),
(43,4,o),
(43,6,cs),
(101,328,l),
(485,328,l),
(427,7,ls),
(427,5,o),
(426,0,o),
(434,0,cs),
(440,0,o),
(439,4,o),
(440,7,cs),
(555,644,ls),
(556,649,o),
(553,650,o),
(549,650,cs),
(542,650,o),
(542,646,o),
(542,645,cs),
(487,340,l),
(103,340,l),
(158,644,ls),
(158,645,o),
(159,650,o),
(152,650,cs),
(145,650,o),
(145,646,o),
(145,645,cs),
(30,7,ls),
(29,2,o),
(33,0,o),
(36,0,cs)
);
}
);
width = 585;
},
{
layerId = m003;
shapes = (
{
closed = 1;
nodes = (
(76,0,o),
(79,17,o),
(80,20,cs),
(132,310,l),
(462,310,l),
(411,27,ls),
(410,22,o),
(411,0,o),
(434,0,cs),
(453,0,o),
(459,16,o),
(460,20,cs),
(569,624,ls),
(572,639,o),
(561,650,o),
(545,650,cs),
(524,650,o),
(520,635,o),
(519,631,cs),
(470,357,l),
(141,357,l),
(189,624,ls),
(189,626,o),
(189,650,o),
(168,650,cs),
(144,650,o),
(140,632,o),
(140,631,cs),
(31,27,ls),
(28,12,o),
(36,0,o),
(54,0,cs)
);
}
);
width = 599;
}
);
metricLeft = N;
metricRight = N;
unicode = 72;
},
{
glyphname = I;
lastChange = "2022-02-01 08:25:17 +0000";
layers = (
{
layerId = m002;
shapes = (
{
closed = 1;
nodes = (
(132,0,ls),
(136,0,o),
(138,2,o),
(138,6,cs),
(138,13,o),
(133,13,o),
(132,13,cs),
(91,13,l),
(204,637,l),
(245,637,ls),
(247,637,o),
(252,637,o),
(252,643,cs),
(252,650,o),
(248,650,o),
(245,650,cs),
(150,650,ls),
(146,650,o),
(144,646,o),
(144,643,cs),
(144,637,o),
(148,637,o),
(150,637,cs),
(191,637,l),
(78,13,l),
(37,13,ls),
(35,13,o),
(30,13,o),
(30,6,cs),
(30,0,o),
(35,0,o),
(37,0,cs)
);
}
);
width = 282;
},
{
layerId = m003;
shapes = (
{
closed = 1;
nodes = (
(144,0,ls),
(158,0,o),
(168,10,o),
(168,23,cs),
(168,50,o),
(146,50,o),
(144,50,cs),
(127,50,l),
(227,600,l),
(251,600,ls),
(256,600,o),
(276,600,o),
(276,626,cs),
(276,650,o),
(256,650,o),
(251,650,cs),
(162,650,ls),
(148,650,o),
(138,638,o),
(138,626,cs),
(138,600,o),
(158,600,o),
(162,600,cs),
(177,600,l),
(77,50,l),
(55,50,ls),
(50,50,o),
(30,50,o),
(30,23,cs),
(30,0,o),
(52,0,o),
(55,0,cs)
);
}
);
width = 306;
}
);
metricLeft = N;
metricRight = N;
unicode = 73;
},
{
glyphname = J;
lastChange = "2022-02-01 11:59:35 +0000";
layers = (
{
layerId = m002;
shapes = (
{
closed = 1;
nodes = (
(106,0,ls),
(207,0,o),
(261,79,o),
(280,154,c),
(374,636,l),
(545,636,ls),
(549,636,o),
(551,640,o),
(551,643,cs),
(551,650,o),
(546,650,o),
(545,650,cs),
(177,650,ls),
(173,650,o),
(171,646,o),
(171,643,cs),
(171,636,o),
(175,636,o),
(177,636,cs),
(361,636,l),
(268,158,l),
(252,91,o),
(203,12,o),
(106,12,cs),
(82,12,o),
(50,12,o),
(6,12,cs),
(2,12,o),
(0,10,o),
(0,6,cs),
(0,0,o),
(4,0,o),
(6,0,cs)
);
}
);
width = 551;
},
{
layerId = m003;
shapes = (
{
closed = 1;
nodes = (
(118,0,ls),
(228,0,o),
(285,89,o),
(301,157,c),
(388,599,l),
(534,599,ls),
(547,599,o),
(557,613,o),
(557,626,cs),
(557,650,o),
(537,650,o),
(534,650,cs),
(185,650,ls),
(172,650,o),
(162,638,o),
(162,626,cs),
(162,599,o),
(181,599,o),
(185,599,cs),
(337,599,l),
(254,173,l),
(239,117,o),
(201,50,o),
(120,50,cs),
(98,50,o),
(67,50,o),
(23,50,cs),
(10,50,o),
(0,36,o),
(0,23,cs),
(0,0,o),
(21,0,o),
(23,0,cs)
);
}
);
width = 557;
}
);
metricLeft = "=N-30";
metricRight = "=N-30";
unicode = 74;
},
{
glyphname = K;
lastChange = "2022-02-01 12:59:03 +0000";
layers = (
{
layerId = m002;
shapes = (
{
closed = 1;
nodes = (
(43,0,o),
(43,4,o),
(43,6,cs),
(100,321,l),
(368,3,ls),
(369,1,o),
(371,0,o),
(375,0,cs),
(378,0,o),
(381,2,o),
(381,6,cs),
(381,9,o),
(380,10,o),
(378,12,cs),
(107,333,l),
(504,638,ls),
(505,639,o),
(507,641,o),
(507,643,cs),
(507,646,o),
(503,650,o),
(500,650,cs),
(498,650,o),
(496,648,o),
(496,648,cs),
(105,348,l),
(158,643,ls),
(158,644,o),
(159,650,o),
(152,650,cs),
(145,650,o),
(145,645,o),
(145,644,cs),
(30,7,ls),
(29,3,o),
(33,0,o),
(37,0,cs)
);
}
);
width = 507;
},
{
layerId = m003;
shapes = (
{
closed = 1;
nodes = (
(74,0,o),
(79,15,o),
(80,18,cs),
(127,284,l),
(359,8,ls),
(364,2,o),
(372,1,o),
(378,0,c,{
name = "🔷";
}),
(390,1,o),
(404,13,o),
(404,23,cs),
(404,25,o),
(404,32,o),
(399,38,cs),
(154,330,l),
(514,606,ls),
(516,608,o),
(521,612,o),
(521,624,cs),
(521,635,o),
(514,648,o),
(503,650,cs,{
name = "❌";
}),
(490,652,o),
(486,648,o),
(485,647,cs),
(147,388,l),
(189,625,ls),
(190,633,o),
(190,650,o),
(166,650,cs),
(143,650,o),
(139,632,o),
(139,631,cs),
(30,27,ls),
(27,13,o),
(40,0,o),
(52,0,cs)
);
}
);
width = 521;
}
);
metricLeft = N;
metricRight = "=N-30";
unicode = 75;
},
{
glyphname = L;
lastChange = "2022-02-01 12:59:33 +0000";
layers = (
{
layerId = m002;
shapes = (
{
closed = 1;
nodes = (
(371,0,ls),
(375,0,o),
(377,2,o),
(377,6,cs),
(377,13,o),
(372,13,o),
(371,13,cs),
(44,13,l),
(158,643,l),
(159,646,o),
(156,650,o),
(152,650,cs),
(149,650,o),
(146,648,o),
(145,645,c),
(30,8,ls),
(29,0,o),
(33,0,o),
(35,0,cs)
);
}
);
width = 487;
},
{
layerId = m003;
shapes = (
{
closed = 1;
nodes = (
(371,0,ls),
(384,0,o),
(394,10,o),
(394,23,cs),
(394,50,o),
(374,50,o),
(371,50,cs),
(86,50,l),
(190,622,ls),
(191,627,o),
(192,650,o),
(168,650,cs),
(146,650,o),
(141,635,o),
(140,632,cs),
(31,28,ls),
(26,0,o),
(49,0,o),
(53,0,cs)
);
}
);
width = 504;
}
);
metricLeft = N;
metricRight = "=N+80";
unicode = 76;
},
{
glyphname = M;
lastChange = "2022-02-01 13:00:15 +0000";
layers = (
{
layerId = m002;
shapes = (
{
closed = 1;
nodes = (
(42,0,o),
(43,4,o),
(44,5,cs),
(356,625,l),
(403,8,ls),
(403,5,o),
(403,0,o),
(410,0,cs,{
name = "❌";
}),
(417,0,o),
(419,4,o),
(420,7,cs),
(727,625,l),
(771,5,ls),
(771,3,o),
(771,0,o),
(777,0,cs),
(784,0,o),
(784,4,o),
(784,6,cs),
(739,643,ls),
(739,647,o),
(736,650,o),
(731,650,cs),
(725,650,o),
(724,648,o),
(723,646,cs),
(415,26,l),
(368,643,ls),
(368,645,o),
(368,650,o),
(361,650,cs),
(355,650,o),
(353,648,o),
(352,646,cs),
(31,8,ls),
(29,4,o),
(33,0,o),
(36,0,cs)
);
}
);
width = 924;
},
{
layerId = m003;
shapes = (
{
closed = 1;
nodes = (
(71,0,o),
(78,13,o),
(79,14,cs),
(346,545,l),
(386,24,ls),
(386,21,o),
(388,0,o),
(410,0,cs,{
name = "❌";
}),
(428,0,o),
(436,15,o),
(437,16,cs),
(698,538,l),
(734,21,ls),
(734,19,o),
(739,0,o),
(757,0,cs),
(782,0,o),
(784,19,o),
(784,24,cs),
(742,627,ls),
(741,640,o),
(727,650,o),
(714,650,cs),
(698,650,o),
(692,639,o),
(691,637,cs,{
name = "💚";
}),
(429,113,l),
(390,627,ls),
(390,630,o),
(388,650,o),
(363,650,cs),
(344,650,o),
(337,637,o),
(337,637,cs,{
name = "💚";
}),
(32,33,ls),
(24,17,o),
(40,0,o),
(56,0,cs)
);
}
);
width = 924;
}
);
metricLeft = N;
metricRight = "=N+110";
unicode = 77;
},
{
glyphname = N;
lastChange = "2022-02-01 08:25:17 +0000";
layers = (
{
layerId = m002;
shapes = (
{
closed = 1;
nodes = (
(43,0,o),
(43,3,o),
(43,5,cs),
(155,626,l),
(453,3,l),
(455,0,o),
(459,-3,o),
(462,0,cs,{
name = "💚";
}),
(462,0,o),
(465,1,o),
(466,4,c),
(582,644,ls),
(583,649,o),
(578,650,o),
(575,650,cs),
(569,650,o),
(570,647,o),
(569,644,cs),
(457,26,l),
(160,646,ls),
(159,648,o),
(160,650,o),
(152,650,cs),
(147,650,o),
(146,647,o),
(145,643,cs),
(30,8,ls),
(29,3,o),
(31,0,o),
(36,0,cs)
);
}
);
width = 612;
},
{
layerId = m003;
shapes = (
{
closed = 1;
nodes = (
(77,0,o),
(80,17,o),
(80,19,cs),
(177,553,l),
(436,12,ls,{
name = "💚";
}),
(437,10,o),
(441,-2,o),
(461,0,cs),
(483,2,o),
(483,16,o),
(483,18,cs),
(593,623,ls),
(596,640,o),
(583,650,o),
(566,650,cs),
(544,650,o),
(545,634,o),
(544,630,cs),
(448,103,l),
(193,636,ls,{
name = "💚";
}),
(192,639,o),
(187,650,o),
(166,650,cs),
(143,650,o),
(141,633,o),
(140,629,cs),
(31,28,ls),
(28,13,o),
(38,0,o),
(57,0,cs)
);
}
);
width = 623;
}
);
unicode = 78;
},
{
glyphname = O;
lastChange = "2022-02-01 12:48:05 +0000";
layers = (
{
background = {
shapes = (
{
closed = 1;
nodes = (
(218,0,o),
(262,29,o),
(283,45,cs),
(413,144,o),
(483,284,o),
(483,416,cs),
(483,529,o),
(433,650,o),
(305,650,cs),
(137,650,o),
(93,618,o),
(41,385,cs),
(28,325,o),
(11,112,o),
(93,35,cs),
(111,18,o),
(133,0,o),
(166,0,cs,{
name = "❌";
})
);
},
{
closed = 1;
nodes = (
(135,13,o),
(117,30,o),
(101,45,cs),
(26,116,o),
(41,326,o),
(53,381,cs),
(100,599,o),
(134,637,o),
(305,637,cs),
(422,637,o),
(470,524,o),
(470,416,cs),
(470,287,o),
(404,150,o),
(275,55,cs),
(256,41,o),
(217,13,o),
(166,13,cs)
);
}
);
};
layerId = m002;
shapes = (
{
closed = 1;
nodes = (
(216,1,o),
(262,29,o),
(283,45,cs),
(415,146,o),
(483,278,o),
(483,416,cs),
(483,529,o),
(433,650,o),
(305,650,cs),
(159,650,o),
(94,616,o),
(41,385,cs),
(27,325,o),
(9,115,o),
(93,35,cs),
(111,18,o),
(133,-1,o),
(166,0,cs,{
name = "❌";
})
);
},
{
closed = 1;
nodes = (
(135,13,o),
(121,26,o),
(101,45,cs),
(27,115,o),
(40,327,o),
(54,381,cs),
(108,587,o),
(149,637,o),
(305,637,cs),
(429,637,o),
(470,512,o),
(470,416,cs),
(470,287,o),
(407,152,o),
(275,55,cs),
(256,41,o),
(214,13,o),
(166,13,cs)
);
}
);
width = 513;
},
{
layerId = m003;
shapes = (
{
closed = 1;
nodes = (
(244,0,o),
(281,29,o),
(301,44,cs),
(424,140,o),
(505,291,o),
(505,416,cs),
(505,518,o),
(464,650,o),
(321,650,cs,{
name = "❌";
}),
(179,650,o),
(86,618,o),
(42,397,cs),
(28,325,o),
(12,135,o),
(94,47,cs),
(111,29,o),
(143,0,o),
(192,0,cs)
);
},
{
closed = 1;
nodes = (
(156,51,o),
(140,70,o),
(125,87,cs),
(69,151,o),
(76,306,o),
(92,387,cs),
(130,583,o),
(206,600,o),
(321,600,cs),
(421,600,o),
(455,506,o),
(455,415,cs),
(455,293,o),
(382,172,o),
(271,82,cs),
(255,69,o),
(223,51,o),
(194,51,cs)
);
}
);
width = 535;
}
);
unicode = 79;
},
{
glyphname = P;
lastChange = "2022-02-01 12:12:19 +0000";
layers = (
{
layerId = m002;
shapes = (
{
closed = 1;
nodes = (
(43,0,o),
(43,4,o),
(43,6,cs),
(101,328,l),
(179,328,o),
(270,329,o),
(301,334,cs),
(433,355,o),
(476,406,o),
(476,514,cs),
(476,577,o),
(410,628,o),
(366,637,cs),
(291,653,o),
(263,650,o),
(140,650,cs),
(137,650,o),
(133,646,o),
(133,643,cs),
(133,637,o),
(137,637,o),
(140,637,cs),
(144,637,l),
(30,7,ls),
(30,5,o),
(29,0,o),
(36,0,cs)
);
},
{
closed = 1;
nodes = (
(157,637,l),
(247,637,ls),
(266,637,o),
(312,637,o),
(364,625,cs),
(407,615,o),
(463,568,o),
(463,514,cs),
(463,406,o),
(423,369,o),
(299,348,cs),
(270,343,o),
(180,341,o),
(103,341,c)
);
}
);
width = 506;
},
{
layerId = m003;
shapes = (
{
closed = 1;
nodes = (
(77,0,o),
(80,17,o),
(80,19,cs),
(132,308,l),
(202,308,o),
(282,311,o),
(310,315,cs),
(430,332,o),
(503,392,o),
(493,504,cs),
(486,584,o),
(418,629,o),
(364,640,cs),
(308,652,o),
(263,650,o),
(154,650,cs),
(136,650,o),
(129,639,o),
(127,626,cs),
(126,619,o),
(125,600,o),
(132,599,c),
(134,599,l),
(30,27,ls),
(30,25,o),
(25,0,o),
(53,0,cs)
);
},
{
closed = 1;
nodes = (
(185,600,l),
(256,600,ls),
(257,600,o),
(305,600,o),
(348,592,cs),
(383,586,o),
(439,556,o),
(443,504,cs),
(450,409,o),
(399,381,o),
(303,365,cs),
(279,361,o),
(208,358,o),
(141,358,c)
);
}
);
width = 524;
}
);
metricLeft = N;
metricRight = O;
unicode = 80;
},
{
glyphname = Q;
lastChange = "2022-02-01 13:01:37 +0000";
layers = (
{
background = {
shapes = (
{
closed = 1;
nodes = (
(219,0,o),
(263,29,o),
(284,45,c),
(300,58,l),
(339,2,l),
(341,-1,o),
(345,0,o),
(346,0,cs),
(348,0,o),
(353,3,o),
(349,10,c),
(309,66,l),
(423,163,o),
(484,293,o),
(484,416,cs),
(484,529,o),
(434,650,o),
(306,650,cs),
(138,650,o),
(94,618,o),
(42,385,cs),
(29,325,o),
(12,112,o),
(94,35,cs),
(112,18,o),
(134,0,o),
(167,0,cs,{
name = "❌";
})
);
},
{
closed = 1;
nodes = (
(136,13,o),
(118,30,o),
(102,45,cs),
(27,116,o),
(42,326,o),
(54,381,cs),
(101,599,o),
(135,637,o),
(306,637,cs),
(423,637,o),
(471,524,o),
(471,416,cs),
(471,295,o),
(415,169,o),
(302,76,c),
(255,143,l),
(252,147,o),
(249,145,o),
(247,144,cs),
(244,142,o),
(241,141,o),
(245,135,c),
(293,68,l),
(276,55,l),
(257,41,o),
(218,13,o),
(167,13,cs)
);
}
);
};
layerId = m002;
shapes = (
{
closed = 1;
nodes = (
(213,0,o),
(264,28,o),
(284,45,cs,{
name = "💚";
}),
(300,58,l),
(339,2,ls,{
name = "💚";
}),
(341,-1,o),
(344,0,o),
(346,0,cs),
(348,0,o),
(354,3,o),
(349,10,cs,{
name = "💚";
}),
(309,66,l),
(431,167,o),
(484,301,o),
(484,416,cs),
(484,525,o),
(437,650,o),
(306,650,cs),
(162,650,o),
(92,616,o),
(40,385,cs),
(26,325,o),
(12,114,o),
(94,35,cs),
(112,18,o),
(132,0,o),
(167,0,cs,{
name = "❌";
})
);
},
{
closed = 1;
nodes = (
(138,13,o),
(119,29,o),
(102,45,cs),
(27,116,o),
(42,336,o),
(53,381,cs),
(101,580,o),
(146,638,o),
(306,637,cs),
(423,636,o),
(471,523,o),
(471,416,cs),
(471,295,o),
(413,169,o),
(302,76,c),
(255,143,ls,{
name = "💚";
}),
(252,147,o),
(249,145,o),
(247,144,cs),
(244,142,o),
(241,141,o),
(245,135,cs,{
name = "💚";
}),
(293,68,l),
(276,55,ls,{
name = "💚";
}),
(257,41,o),
(218,13,o),
(167,13,cs)
);
}
);
width = 514;
},
{
layerId = m003;
shapes = (
{
closed = 1;
nodes = (
(232,0,o),
(268,18,o),
(306,49,c),
(312,53,l),
(344,7,l),
(346,4,o),
(360,-6,o),
(374,4,cs),
(389,15,o),
(384,30,o),
(380,37,c),
(346,83,l),
(442,178,o),
(504,296,o),
(504,416,cs),
(504,534,o),
(450,650,o),
(322,650,cs),
(190,650,o),
(81,624,o),
(40,391,cs),
(33,351,o),
(6,134,o),
(98,42,cs),
(116,24,o),
(145,0,o),
(183,0,cs,{
name = "❌";
})
);
},
{
closed = 1;
nodes = (
(162,51,o),
(147,62,o),
(132,79,cs),
(63,155,o),
(82,339,o),
(90,381,cs),
(129,585,o),
(196,598,o),
(322,600,cs),
(413,601,o),
(454,514,o),
(454,416,cs),
(454,295,o),
(384,191,o),
(317,125,c),
(287,167,l),
(281,175,o),
(268,173,o),
(261,169,cs),
(250,163,o),
(244,149,o),
(251,138,c),
(283,93,l),
(281,91,l),
(254,71,o),
(234,51,o),
(183,51,cs)
);
}
);
width = 534;
}
);
metricLeft = O;
metricRight = O;
unicode = 81;
},
{
glyphname = R;
lastChange = "2022-02-01 12:22:50 +0000";
layers = (
{
layerId = m002;
shapes = (
{
closed = 1;
nodes = (
(43,0,o),
(43,5,o),
(43,7,cs),
(101,328,l),
(104,328,l),
(426,2,ls),
(428,0,o),
(429,0,o),
(431,0,cs),
(434,0,o),
(438,2,o),
(438,6,cs),
(438,8,o),
(437,9,o),
(436,10,cs),
(121,328,l),
(170,328,o),
(267,328,o),
(297,332,cs),
(424,349,o),
(475,404,o),
(472,509,cs),
(471,549,o),
(446,587,o),
(419,608,cs),
(377,641,o),
(298,650,o),
(246,650,cs),
(142,650,ls),
(138,650,o),
(136,646,o),
(136,643,cs),
(136,637,o),
(140,637,o),
(142,637,cs),
(144,637,l),
(30,7,ls),
(30,5,o),
(29,0,o),
(36,0,cs)
);
},
{
closed = 1;
nodes = (
(157,637,l),
(246,637,ls),
(304,637,o),
(366,632,o),
(411,596,cs),
(436,576,o),
(459,545,o),
(459,509,cs),
(459,408,o),
(415,356,o),
(295,344,cs),
(265,341,o),
(177,341,o),
(129,341,cs),
(103,341,l)
);
}
);
width = 532;
},
{
layerId = m003;
shapes = (
{
closed = 1;
nodes = (
(77,0,o),
(79,14,o),
(80,21,cs),
(129,291,l),
(130,289,l),
(407,10,ls),
(411,6,o),
(417,0,o),
(427,0,cs),
(436,0,o),
(455,10,o),
(455,25,cs),
(455,33,o),
(451,37,o),
(448,40,cs),
(179,311,l),
(226,311,o),
(282,314,o),
(310,317,cs),
(433,330,o),
(489,393,o),
(487,498,cs),
(486,541,o),
(460,584,o),
(436,603,cs),
(384,644,o),
(311,650,o),
(255,650,cs),
(152,650,ls),
(140,650,o),
(130,634,o),
(128,628,c,{
name = "🔷";
}),
(127,621,o),
(125,610,o),
(129,606,cs),
(135,600,l),
(30,27,ls),
(30,25,o),
(26,0,o),
(52,0,cs)
);
},
{
closed = 1;
nodes = (
(185,600,l),
(255,600,ls),
(320,600,o),
(370,592,o),
(400,567,cs),
(424,547,o),
(437,531,o),
(437,497,cs),
(437,418,o),
(411,382,o),
(302,366,cs),
(274,362,o),
(213,362,o),
(167,362,cs),
(142,362,l)
);
}
);
width = 547;
}
);
metricLeft = N;
metricRight = "=N+30";
unicode = 82;
},
{
glyphname = S;
lastChange = "2022-02-01 12:26:05 +0000";
layers = (
{
layerId = m002;
shapes = (
{
closed = 1;
nodes = (
(131,0,ls),
(234,0,o),
(398,51,o),
(398,163,cs),
(398,229,o),
(327,281,o),
(245,347,cs),
(176,403,o),
(102,461,o),
(102,502,cs),
(102,574,o),
(196,638,o),
(274,636,cs),
(476,631,ls),
(479,631,o),
(483,635,o),
(483,638,cs),
(483,645,o),
(479,645,o),
(476,645,cs),
(274,650,ls),
(179,652,o),
(89,574,o),
(89,502,cs),
(89,454,o),
(168,394,o),
(237,337,cs),
(316,272,o),
(384,223,o),
(384,163,cs),
(384,51,o),
(210,12,o),
(131,12,cs),
(7,12,ls),
(4,12,o),
(0,10,o),
(0,6,cs),
(0,0,o),
(5,0,o),
(7,0,cs)
);
}
);
width = 483;
},
{
layerId = m003;
shapes = (
{
closed = 1;
nodes = (
(141,0,ls),
(239,0,o),
(413,46,o),
(413,172,cs),
(413,246,o),
(340,298,o),
(261,361,cs),
(204,406,o),
(132,452,o),
(132,492,cs),
(132,555,o),
(224,600,o),
(276,600,cs),
(468,600,ls),
(481,600,o),
(491,613,o),
(491,626,cs),
(491,650,o),
(471,650,o),
(467,650,cs),
(277,650,ls),
(184,650,o),
(82,576,o),
(82,492,cs),
(82,422,o),
(166,373,o),
(229,323,cs),
(307,261,o),
(363,218,o),
(363,172,cs),
(363,79,o),
(206,50,o),
(141,50,cs),
(24,50,ls),
(11,50,o),
(0,37,o),
(0,24,cs),
(0,0,o),
(22,0,o),
(24,0,cs)
);
}
);
width = 491;
}
);
unicode = 83;
},
{
glyphname = T;
lastChange = "2022-02-01 13:02:26 +0000";
layers = (
{
layerId = m002;
shapes = (
{
closed = 1;
nodes = (
(164,0,o),
(167,2,o),
(168,5,c),
(282,637,l),
(454,637,ls),
(455,637,o),
(460,637,o),
(460,643,cs),
(460,650,o),
(455,650,o),
(454,650,cs),
(96,650,ls),
(92,650,o),
(90,646,o),
(90,643,cs),
(90,637,o),
(94,637,o),
(96,637,cs),
(269,637,l),
(155,6,l),
(155,2,o),
(158,0,o),
(161,0,cs)
);
}
);
width = 460;
},
{
layerId = m003;
shapes = (
{
closed = 1;
nodes = (
(201,0,o),
(204,15,o),
(205,18,cs),
(310,600,l),
(459,600,ls),
(462,600,o),
(482,600,o),
(482,623,cs),
(482,650,o),
(463,650,o),
(459,650,cs),
(113,650,ls),
(100,650,o),
(90,636,o),
(90,623,cs),
(90,600,o),
(110,600,o),
(113,600,cs),
(259,600,l),
(155,25,ls,{
name = "💚";
}),
(154,18,o),
(153,0,o),
(181,0,cs)
);
}
);
width = 482;
}
);
metricLeft = "=N+60";
unicode = 84;
},
{
glyphname = U;
lastChange = "2022-02-01 12:28:54 +0000";
layers = (
{
layerId = m002;
shapes = (
{
closed = 1;
nodes = (
(187,0,o),
(244,43,o),
(288,88,cs),
(368,170,o),
(461,287,o),
(510,421,c),
(435,6,ls),
(434,2,o),
(439,0,o),
(442,0,cs),
(448,0,o),
(448,4,o),
(448,6,cs),
(564,644,ls),
(565,648,o),
(561,650,o),
(558,650,cs,{
name = "❌";
}),
(552,650,o),
(552,648,o),
(551,645,cs),
(525,500,l),
(460,307,o),
(371,192,o),
(278,96,cs),
(236,53,o),
(183,12,o),
(139,12,cs),
(100,12,o),
(83,40,o),
(79,52,cs),
(72,74,o),
(73,124,o),
(80,166,c),
(164,642,l),
(165,646,o),
(164,650,o),
(158,650,cs),
(153,650,o),
(150,647,o),
(150,644,c),
(66,168,l),
(60,118,o),
(57,77,o),
(66,48,cs),
(71,32,o),
(94,0,o),
(139,0,cs)
);
}
);
width = 594;
},
{
layerId = m003;
shapes = (
{
closed = 1;
nodes = (
(252,0,o),
(390,171,o),
(446,257,cs),
(457,274,o),
(462,282,o),
(466,289,c),
(417,23,ls),
(414,9,o),
(428,0,o),
(443,0,cs),
(464,0,o),
(467,19,o),
(468,23,cs),
(578,619,ls),
(581,638,o),
(568,650,o),
(557,650,cs),
(528,650,o),
(530,632,o),
(528,623,cs),
(504,494,l),
(466,381,o),
(432,331,o),
(403,283,cs),
(352,197,o),
(231,49,o),
(155,49,cs),
(128,49,o),
(118,61,o),
(114,72,cs),
(107,90,o),
(110,137,o),
(116,175,c),
(195,615,l),
(198,632,o),
(193,650,o),
(173,650,cs,{
name = "❌";
}),
(157,650,o),
(148,636,o),
(146,625,c),
(65,178,l),
(60,140,o),
(57,90,o),
(65,60,cs),
(72,34,o),
(97,0,o),
(155,0,cs,{
name = "❌";
})
);
}
);
width = 608;
}
);
metricLeft = "=N+30";
metricRight = N;
unicode = 85;
},
{
glyphname = V;
kernLeft = "0";
lastChange = "2022-02-01 12:45:17 +0000";
layers = (
{
layerId = m002;
shapes = (
{
closed = 1;
nodes = (
(460,643,ls,{
name = "💚";
}),
(462,648,o),
(456,650,o),
(453,650,cs),
(447,650,o),
(447,647,o),
(447,646,cs),
(133,25,l),
(93,644,ls),
(93,645,o),
(93,650,o),
(86,650,cs),
(80,650,o),
(80,645,o),
(80,644,cs),
(120,11,ls),
(121,2,o),
(125,0,o),
(128,0,cs),
(133,0,o),
(137,4,o),
(140,11,cs)
);
}
);
width = 430;
},
{
layerId = m003;
shapes = (
{
closed = 1;
nodes = (
(479,619,ls,{
name = "💚";
}),
(489,638,o),
(467,650,o),
(453,650,cs),
(438,650,o),
(432,638,o),
(428,631,cs),
(162,106,l),
(130,622,ls),
(129,631,o),
(124,650,o),
(105,650,cs),
(74,650,o),
(80,620,o),
(80,617,cs),
(117,22,ls),
(118,9,o),
(130,0,o),
(143,0,cs),
(163,0,o),
(170,11,o),
(173,16,cs)
);
}
);
width = 452;
}
);
metricLeft = "=N+50";
metricRight = "=N-60";
unicode = 86;
},
{
glyphname = W;
lastChange = "2022-02-01 08:25:17 +0000";
layers = (
{
layerId = m002;
shapes = (
{
closed = 1;
nodes = (
(134,0,o),
(136,3,o),
(137,4,cs),
(451,625,l),
(491,7,ls),
(491,5,o),
(491,0,o),
(499,0,cs),
(503,0,o),
(505,3,o),
(506,4,cs,{
name = "💚";
}),
(816,642,ls),
(818,647,o),
(814,650,o),
(810,650,cs),
(806,650,o),
(804,647,o),
(803,645,cs),
(503,26,l),
(463,643,ls),
(463,644,o),
(463,650,o),
(457,650,cs),
(450,650,o),
(448,648,o),
(447,646,cs),
(133,25,l),
(93,644,ls),
(93,645,o),
(93,650,o),
(87,650,cs),
(80,650,o),
(80,644,o),
(80,643,cs),
(121,7,ls),
(121,4,o),
(124,0,o),
(128,0,cs)
);
}
);
width = 787;
},
{
layerId = m003;
shapes = (
{
closed = 1;
nodes = (
(165,0,o),
(171,12,o),
(172,13,cs,{
name = "💚";
}),
(441,544,l),
(471,23,ls),
(471,21,o),
(473,0,o),
(496,0,cs),
(519,0,o),
(524,12,o),
(525,13,cs,{
name = "💚";
}),
(815,618,ls),
(824,636,o),
(806,650,o),
(791,650,cs),
(774,650,o),
(769,638,o),
(768,636,cs),
(516,109,l),
(487,627,ls),
(487,631,o),
(485,650,o),
(460,650,cs),
(436,650,o),
(432,637,o),
(432,637,cs,{
name = "💚";
}),
(163,106,l),
(130,628,ls),
(130,630,o),
(128,650,o),
(107,650,cs),
(78,650,o),
(80,629,o),
(80,625,cs),
(118,23,ls),
(119,11,o),
(130,0,o),
(143,0,cs)
);
}
);
width = 787;
}
);
metricLeft = V;
metricRight = V;
unicode = 87;
},
{
glyphname = X;
lastChange = "2022-02-01 12:46:21 +0000";
layers = (
{
layerId = m002;
shapes = (
{
closed = 1;
nodes = (
(-21,0,o),
(-19,2,o),
(-18,3,cs),
(230,320,l),
(374,4,ls),
(375,2,o),
(377,0,o),
(380,0,cs),
(388,0,o),
(387,7,o),
(386,9,cs),
(239,332,l),
(484,639,ls),
(488,644,o),
(485,650,o),
(479,650,cs),
(477,650,o),
(476,649,o),
(474,647,cs),
(233,345,l),
(95,646,ls),
(94,648,o),
(93,650,o),
(89,650,cs),
(84,650,o),
(81,646,o),
(82,643,cs),
(224,333,l),
(-29,10,ls),
(-31,7,o),
(-31,0,o),
(-24,0,cs)
);
}
);
width = 456;
},
{
layerId = m003;
shapes = (
{
closed = 1;
nodes = (
(8,0,o),
(13,7,o),
(15,9,cs,{
name = "💚";
}),
(231,285,l),
(353,15,ls),
(356,9,o),
(361,0,o),
(377,0,cs),
(404,0,o),
(404,25,o),
(400,33,cs),
(266,329,l),
(491,611,ls),
(509,633,o),
(487,650,o),
(471,650,cs),
(458,650,o),
(451,641,o),
(451,641,cs),
(242,379,l),
(125,636,ls),
(124,638,o),
(118,650,o),
(101,650,cs),
(79,650,o),
(73,629,o),
(78,618,cs),
(207,335,l),
(-26,38,ls),
(-37,24,o),
(-25,0,o),
(-6,0,cs)
);
}
);
width = 468;
}
);
metricLeft = "=N-60";
metricRight = V;
unicode = 88;
},
{
glyphname = Y;
kernLeft = "0";
kernRight = "0";
lastChange = "2022-02-01 12:46:21 +0000";
layers = (
{
layerId = m002;
shapes = (
{
closed = 1;
nodes = (
(182,0,o),
(182,5,o),
(182,7,cs),
(238,317,l),
(507,642,ls),
(509,645,o),
(506,650,o),
(500,650,cs),
(497,650,o),
(495,648,o),
(495,648,cs),
(235,334,l),
(93,646,ls),
(92,648,o),
(91,650,o),
(87,650,cs),
(82,650,o),
(79,646,o),
(80,643,cs),
(226,322,l),
(169,7,ls),
(169,5,o),
(168,0,o),
(175,0,cs)
);
}
);
width = 478;
},
{
layerId = m003;
shapes = (
{
closed = 1;
nodes = (
(212,0,o),
(215,19,o),
(216,22,cs),
(268,311,l),
(522,617,ls),
(535,632,o),
(513,650,o),
(500,650,cs),
(492,650,o),
(483,648,o),
(479,643,cs),
(252,369,l),
(131,633,ls),
(127,642,o),
(122,650,o),
(108,650,cs),
(81,650,o),
(77,631,o),
(81,622,cs),
(219,320,l),
(166,24,ls),
(165,18,o),
(162,0,o),
(190,0,cs)
);
}
);
width = 496;
}
);
metricLeft = V;
metricRight = V;
unicode = 89;
},
{
glyphname = Z;
lastChange = "2022-02-01 12:36:39 +0000";
layers = (
{
layerId = m002;
shapes = (
{
closed = 1;
nodes = (
(509,0,ls),
(513,0,o),
(515,2,o),
(515,6,cs),
(515,13,o),
(510,13,o),
(509,13,cs),
(23,13,l),
(530,642,ls),
(533,646,o),
(532,650,o),
(526,650,cs),
(122,650,ls),
(119,650,o),
(115,646,o),
(115,643,cs),
(115,637,o),
(119,637,o),
(122,637,cs),
(509,637,l),
(2,8,ls),
(-2,3,o),
(0,0,o),
(6,0,cs)
);
}
);
width = 602;
},
{
layerId = m003;
shapes = (
{
closed = 1;
nodes = (
(501,0,ls),
(514,0,o),
(524,10,o),
(524,23,cs),
(524,50,o),
(504,50,o),
(501,50,cs),
(82,50,l),
(539,614,ls),
(551,629,o),
(537,650,o),
(517,650,cs),
(135,650,ls),
(122,650,o),
(111,638,o),
(111,626,cs),
(111,600,o),
(130,600,o),
(135,600,cs),
(463,600,l),
(6,36,ls),
(-7,20,o),
(4,0,o),
(25,0,cs)
);
}
);
width = 613;
}
);
metricRight = "=N+40";
unicode = 90;
},
{
glyphname = a;
lastChange = "2022-02-01 14:12:03 +0000";
layers = (
{
layerId = m002;
shapes = (
{
closed = 1;
nodes = (
(120,0,o),
(160,52,o),
(202,116,cs),
(241,177,o),
(272,239,o),
(284,265,c),
(282,254,o),
(238,7,o),
(238,7,c),
(238,6,ls),
(238,2,o),
(241,0,o),
(245,0,cs),
(249,0,o),
(249,2,o),
(250,5,cs,{
name = "💚";
}),
(311,342,l),
(311,343,ls,{
name = "💚";
}),
(311,347,o),
(306,350,o),
(303,350,cs),
(266,350,ls),
(244,350,o),
(188,351,o),
(159,345,cs),
(92,332,o),
(53,262,o),
(43,207,cs),
(40,192,o),
(30,150,o),
(30,104,cs),
(30,38,o),
(42,0,o),
(82,0,cs)
);
},
{
closed = 1;
nodes = (
(42,146,o),
(49,178,o),
(55,204,cs),
(70,266,o),
(103,320,o),
(161,333,cs),
(189,339,o),
(244,338,o),
(266,338,cs),
(294,338,l),
(282,295,o),
(260,244,o),
(238,203,cs),
(225,179,o),
(208,150,o),
(192,125,cs),
(148,58,o),
(113,13,o),
(81,13,cs),
(51,13,o),
(42,47,o),
(42,104,cs)
);
}
);
width = 329;
},
{
layerId = m003;
shapes = (
{
closed = 1;
nodes = (
(143,0,o),
(159,13,o),
(203,62,cs),
(213,73,o),
(231,97,o),
(236,105,c),
(235,99,o),
(221,26,o),
(221,26,c),
(220,20,ls),
(219,12,o),
(229,0,o),
(241,0,cs),
(256,0,o),
(267,7,o),
(270,16,c),
(327,341,l),
(327,342,ls,{
name = "💚";
}),
(327,347,o),
(322,350,o),
(316,350,cs),
(279,350,ls),
(257,350,o),
(207,351,o),
(185,347,cs),
(105,332,o),
(69,280,o),
(47,209,cs),
(41,188,o),
(30,148,o),
(30,104,cs),
(30,41,o),
(54,0,o),
(98,0,cs)
);
},
{
closed = 1;
nodes = (
(84,150,o),
(93,188,o),
(97,202,cs),
(110,245,o),
(129,278,o),
(182,295,cs),
(198,300,o),
(233,299,o),
(249,299,cs),
(270,299,l),
(261,269,o),
(254,240,o),
(234,201,cs),
(222,178,o),
(208,152,o),
(193,131,cs),
(167,95,o),
(134,52,o),
(105,50,cs),
(76,48,o),
(80,98,o),
(82,128,cs)
);
}
);
width = 355;
}
);
metricLeft = o;
metricRight = n;
unicode = 97;
},
{
glyphname = b;
lastChange = "2022-02-01 14:15:14 +0000";
layers = (
{
layerId = m002;
shapes = (
{
closed = 1;
nodes = (
(94,0,o),
(178,3,o),
(207,12,cs),
(273,33,o),
(297,88,o),
(314,151,cs),
(319,171,o),
(327,221,o),
(327,261,cs),
(327,329,o),
(300,350,o),
(264,350,cs),
(204,350,o),
(119,270,o),
(82,185,cs),
(70,157,l),
(157,643,ls),
(157,645,o),
(159,650,o),
(152,650,cs),
(147,650,o),
(145,644,o),
(145,643,cs),
(30,5,l),
(30,1,o),
(32,0,o),
(36,0,cs)
);
},
{
closed = 1;
nodes = (
(64,107,o),
(83,156,o),
(94,179,cs),
(139,273,o),
(212,337,o),
(264,337,cs),
(296,337,o),
(315,317,o),
(315,261,cs),
(315,223,o),
(307,173,o),
(302,155,cs),
(286,95,o),
(263,44,o),
(203,24,cs),
(178,16,o),
(110,11,o),
(44,13,c)
);
}
);
width = 347;
},
{
layerId = m003;
shapes = (
{
closed = 1;
nodes = (
(105,0,o),
(187,1,o),
(216,10,cs),
(280,29,o),
(319,82,o),
(338,145,cs),
(344,165,o),
(351,218,o),
(349,261,cs),
(346,324,o),
(312,350,o),
(275,350,cs),
(221,350,o),
(161,302,o),
(129,259,cs),
(122,250,l),
(188,620,ls),
(189,626,o),
(194,650,o),
(166,650,cs),
(142,650,o),
(139,630,o),
(138,624,cs),
(30,24,ls,{
name = "💚";
}),
(28,12,o),
(39,0,o),
(47,0,cs)
);
},
{
closed = 1;
nodes = (
(100,116,o),
(118,145,o),
(130,167,cs),
(178,253,o),
(228,299,o),
(273,299,cs),
(288,299,o),
(299,290,o),
(299,261,cs),
(299,223,o),
(296,179,o),
(291,161,cs),
(279,120,o),
(256,76,o),
(203,58,cs),
(186,52,o),
(137,50,o),
(86,50,c)
);
}
);
width = 369;
}
);
metricLeft = o;
metricRight = "=o-10";
unicode = 98;
},
{
glyphname = c;
lastChange = "2022-02-01 14:20:42 +0000";
layers = (
{
layerId = m002;
shapes = (
{
closed = 1;
nodes = (
(142,0,o),
(181,38,o),
(214,84,cs,{
name = "💚";
}),
(215,86,o),
(217,88,o),
(216,91,c,{
name = "🔷";
}),
(215,93,o),
(213,95,o),
(211,95,cs),
(208,95,o),
(206,94,o),
(204,92,c,{
name = "🔷";
}),
(175,50,o),
(140,13,o),
(104,13,cs),
(71,13,o),
(43,34,o),
(43,113,cs),
(43,173,o),
(59,223,o),
(87,270,cs),
(109,307,o),
(139,325,o),
(162,331,cs),
(180,336,o),
(253,338,o),
(264,338,cs),
(268,338,o),
(270,340,o),
(270,344,cs),
(270,348,o),
(268,350,o),
(264,350,cs),
(253,350,o),
(181,350,o),
(158,343,cs),
(127,334,o),
(100,315,o),
(77,278,cs),
(51,237,o),
(30,180,o),
(30,113,cs),
(30,33,o),
(61,0,o),
(104,0,cs)
);
}
);
width = 300;
},
{
layerId = m003;
shapes = (
{
closed = 1;
nodes = (
(163,0,o),
(191,30,o),
(232,85,cs),
(235,89,o),
(236,97,o),
(234,103,cs),
(231,113,o),
(223,122,o),
(210,122,cs),
(201,122,o),
(195,118,o),
(191,113,cs,{
name = "🔷";
}),
(175,93,o),
(142,50,o),
(116,50,cs),
(95,50,o),
(80,58,o),
(80,120,cs),
(80,179,o),
(99,226,o),
(116,253,cs),
(133,281,o),
(150,289,o),
(174,296,cs),
(190,301,o),
(250,301,o),
(260,301,cs),
(273,301,o),
(284,312,o),
(284,325,cs),
(284,339,o),
(273,350,o),
(260,350,cs),
(250,350,o),
(182,350,o),
(158,343,cs),
(127,334,o),
(98,317,o),
(75,279,cs),
(52,241,o),
(30,187,o),
(30,120,cs),
(30,33,o),
(68,0,o),
(116,0,cs)
);
}
);
width = 314;
}
);
metricLeft = o;
metricRight = o;
unicode = 99;
},
{
glyphname = d;
lastChange = "2022-02-01 14:27:38 +0000";
layers = (
{
layerId = m002;
shapes = (
{
closed = 1;
nodes = (
(118,0,o),
(164,57,o),
(201,116,cs),
(247,190,o),
(247,190,o),
(284,265,c),
(283,259,o),
(257,114,o),
(253,91,cs),
(250,74,o),
(247,38,o),
(262,15,cs),
(269,4,o),
(283,0,o),
(293,0,cs),
(305,0,o),
(321,8,o),
(333,19,cs),
(351,35,o),
(384,76,o),
(403,111,c),
(403,114,ls),
(403,117,o),
(401,121,o),
(397,121,cs),
(395,121,o),
(392,119,o),
(391,117,cs),
(374,83,o),
(344,44,o),
(325,29,cs),
(314,20,o),
(303,13,o),
(293,13,cs),
(286,13,o),
(277,15,o),
(272,23,cs),
(260,42,o),
(264,75,o),
(266,92,c,{
name = "🔷";
}),
(266,92,o),
(365,644,o),
(365,644,c),
(365,647,o),
(362,650,o),
(358,650,cs),
(355,650,o),
(351,647,o),
(351,644,c),
(297,350,l),
(264,350,ls),
(243,350,o),
(206,350,o),
(185,348,cs),
(126,343,o),
(58,277,o),
(42,203,cs),
(37,178,o),
(30,139,o),
(30,101,cs),
(30,34,o),
(46,0,o),
(80,0,cs)
);
},
{
closed = 1;
nodes = (
(42,144,o),
(49,178,o),
(54,199,cs),
(70,268,o),
(132,331,o),
(187,336,cs),
(208,338,o),
(243,338,o),
(294,338,c),
(293,334,ls,{
name = "💚";
}),
(290,324,o),
(284,294,o),
(242,211,cs),
(220,168,o),
(192,125,o),
(191,123,cs),
(184,112,ls),
(153,63,o),
(113,13,o),
(80,13,cs),
(50,13,o),
(42,48,o),
(42,101,cs)
);
}
);
width = 403;
},
{
layerId = m003;
shapes = (
{
closed = 1;
nodes = (
(143,0,o),
(172,24,o),
(224,102,cs),
(240,126,o),
(241,129,o),
(251,145,c),
(249,139,o),
(246,122,o),
(242,94,cs),
(239,75,o),
(242,34,o),
(261,15,cs),
(269,7,o),
(283,0,o),
(305,0,cs),
(317,0,o),
(337,8,o),
(349,19,cs),
(398,64,o),
(419,108,o),
(424,118,cs,{
name = "💚";
}),
(425,120,ls),
(430,130,o),
(420,148,o),
(402,150,cs),
(391,151,o),
(383,146,o),
(378,138,cs),
(349,92,o),
(334,75,o),
(316,57,cs),
(312,53,o),
(306,50,o),
(302,50,cs),
(297,50,o),
(293,55,o),
(292,63,cs),
(291,74,o),
(291,82,o),
(292,91,cs),
(294,113,o),
(387,628,o),
(387,628,c),
(387,640,o),
(377,650,o),
(362,650,cs),
(351,650,o),
(336,640,o),
(336,628,c),
(286,350,l),
(253,350,ls),
(232,350,o),
(210,350,o),
(189,346,cs),
(89,326,o),
(47,226,o),
(40,191,cs),
(36,172,o),
(30,142,o),
(30,102,cs),
(30,43,o),
(59,0,o),
(95,0,cs)
);
},
{
closed = 1;
nodes = (
(78,137,o),
(81,160,o),
(93,193,cs),
(108,235,o),
(150,286,o),
(191,297,cs),
(202,300,o),
(220,300,o),
(277,300,c),
(276,297,ls,{
name = "💚";
}),
(274,292,o),
(261,251,o),
(242,215,cs),
(223,178,o),
(189,133,o),
(185,127,cs),
(175,114,ls),
(146,76,o),
(118,49,o),
(102,49,cs),
(90,49,o),
(78,64,o),
(78,103,cs)
);
}
);
width = 436;
}
);
metricLeft = o;
unicode = 100;
},
{
glyphname = e;
lastChange = "2022-02-01 14:38:53 +0000";
layers = (
{
layerId = m002;
shapes = (
{
closed = 1;
nodes = (
(155,0,o),
(197,57,o),
(226,111,c),
(226,114,ls),
(226,117,o),
(224,121,o),
(220,121,cs),
(218,121,o),
(215,119,o),
(214,117,cs),
(189,68,o),
(148,13,o),
(103,13,cs),
(60,13,o),
(43,46,o),
(43,119,cs),
(43,138,o),
(45,154,o),
(48,168,c),
(170,192,o),
(209,255,o),
(218,298,cs),
(223,321,o),
(216,350,o),
(179,350,cs),
(160,350,o),
(113,332,o),
(72,268,cs),
(47,229,o),
(30,174,o),
(30,119,cs),
(30,40,o),
(54,0,o),
(103,0,cs)
);
},
{
closed = 1;
nodes = (
(53,194,ls),
(63,233,o),
(95,299,o),
(157,332,cs),
(166,338,o),
(199,343,o),
(206,320,cs),
(208,312,o),
(206,302,o),
(205,298,cs),
(196,261,o),
(164,206,o),
(50,182,c)
);
}
);
width = 256;
},
{
layerId = m003;
shapes = (
{
closed = 1;
nodes = (
(163,0,o),
(207,38,o),
(243,109,c),
(244,113,ls,{
name = "💚";
}),
(247,126,o),
(239,145,o),
(222,145,cs),
(212,145,o),
(204,141,o),
(199,132,cs),
(161,64,o),
(133,48,o),
(114,48,cs),
(97,48,o),
(80,65,o),
(80,119,cs),
(80,138,o),
(81,147,o),
(82,153,c),
(193,176,o),
(235,243,o),
(239,291,cs),
(242,326,o),
(225,350,o),
(189,350,cs),
(152,350,o),
(117,345,o),
(73,276,cs),
(46,234,o),
(30,172,o),
(30,119,cs),
(30,42,o),
(63,0,o),
(113,0,cs)
);
},
{
closed = 1;
nodes = (
(97,215,ls),
(102,234,o),
(112,269,o),
(153,299,cs),
(166,308,o),
(182,310,o),
(190,301,cs),
(196,295,o),
(193,282,o),
(191,277,cs),
(183,257,o),
(162,225,o),
(95,208,c)
);
}
);
width = 275;
}
);
metricLeft = o;
metricRight = o;
unicode = 101;
},
{
glyphname = f;
lastChange = "2022-02-01 14:42:54 +0000";
layers = (
{
layerId = m002;
shapes = (
{
closed = 1;
nodes = (
(64,0,o),
(65,4,o),
(65,6,cs),
(113,269,l),
(124,338,l),
(233,338,ls),
(234,338,o),
(239,338,o),
(239,344,cs),
(239,350,o),
(234,350,o),
(233,350,cs),
(127,350,l),
(161,534,ls),
(170,584,o),
(201,637,o),
(253,637,cs),
(278,637,o),
(302,625,o),
(315,612,cs),
(316,611,o),
(318,610,o),
(320,610,cs),
(324,610,o),
(326,614,o),
(326,617,cs),
(326,619,o),
(326,620,o),
(325,622,c),
(310,637,o),
(280,650,o),
(253,650,cs),
(203,650,o),
(161,610,o),
(148,536,cs),
(144,514,o),
(113,350,o),
(113,350,c),
(13,350,ls),
(9,350,o),
(7,348,o),
(7,344,cs),
(7,338,o),
(11,338,o),
(13,338,cs),
(111,338,l),
(100,271,l),
(52,7,l),
(52,3,o),
(55,0,o),
(58,0,cs)
);
}
);
width = 231;
},
{
layerId = m003;
shapes = (
{
closed = 1;
nodes = (
(101,0,o),
(104,18,o),
(104,20,cs),
(150,273,l),
(155,300,l),
(241,300,ls),
(243,300,o),
(266,300,o),
(266,325,cs),
(266,350,o),
(243,350,o),
(241,350,cs),
(164,350,l),
(194,519,ls),
(201,557,o),
(231,599,o),
(263,599,cs),
(283,599,o),
(299,594,o),
(307,584,cs),
(311,579,o),
(318,575,o),
(326,575,cs),
(340,575,o),
(351,588,o),
(351,600,cs),
(351,606,o),
(349,613,o),
(346,617,cs),
(331,637,o),
(295,651,o),
(263,651,cs),
(213,651,o),
(167,617,o),
(146,528,cs),
(143,514,o),
(117,371,o),
(113,350,c),
(34,350,ls),
(20,350,o),
(9,339,o),
(9,325,cs),
(9,300,o),
(32,300,o),
(34,300,cs),
(104,300,l),
(100,278,l),
(54,27,ls,{
name = "💚";
}),
(53,22,o),
(49,0,o),
(78,0,cs)
);
}
);
width = 266;
}
);
metricLeft = n;
unicode = 102;
},
{
glyphname = g;
lastChange = "2022-02-01 14:59:34 +0000";
layers = (
{
layerId = m002;
shapes = (
{
closed = 1;
nodes = (
(109,-300,o),
(140,-288,o),
(166,-248,cs),
(188,-214,o),
(211,-133,o),
(221,-96,cs),
(234,-48,o),
(282,203,o),
(309,342,cs),
(311,350,o),
(296,350,o),
(299,350,c,{
name = "🔷";
}),
(260,350,ls),
(238,350,o),
(201,350,o),
(177,348,cs),
(100,341,o),
(59,284,o),
(45,226,cs),
(40,205,o),
(28,146,o),
(28,101,c,{
name = "🔷";
}),
(28,101,o),
(28,101,o),
(28,99,cs),
(28,44,o),
(40,0,o),
(77,0,cs),
(103,0,o),
(136,20,o),
(185,93,cs),
(232,164,o),
(251,202,o),
(282,265,c),
(260,157,o),
(216,-61,o),
(208,-93,cs),
(196,-140,o),
(180,-198,o),
(153,-241,cs),
(133,-272,o),
(106,-286,o),
(76,-286,cs),
(50,-286,o),
(30,-285,o),
(-6,-277,c),
(-8,-277,ls),
(-12,-277,o),
(-15,-280,o),
(-15,-284,cs),
(-15,-287,o),
(-14,-289,o),
(-10,-290,cs),
(26,-299,o),
(49,-300,o),
(76,-300,cs)
);
},
{
closed = 1;
nodes = (
(40,101,ls),
(40,147,o),
(52,205,o),
(57,223,cs),
(69,269,o),
(103,329,o),
(179,336,cs),
(201,338,o),
(238,338,o),
(260,338,cs),
(292,338,l),
(262,237,o),
(208,151,o),
(172,97,cs),
(126,29,o),
(101,16,o),
(77,13,cs),
(40,8,o),
(40,97,o),
(40,99,cs)
);
}
);
width = 319;
},
{
layerId = m003;
shapes = (
{
closed = 1;
nodes = (
(132,-300,o),
(180,-270,o),
(212,-200,cs),
(233,-154,o),
(259,-61,o),
(268,-24,cs),
(276,10,o),
(325,296,o),
(329,323,cs),
(333,350,o),
(302,350,o),
(313,350,c,{
name = "🔷";
}),
(274,350,ls),
(252,350,o),
(184,350,o),
(155,341,cs),
(79,317,o),
(56,247,o),
(43,212,cs),
(34,187,o),
(23,125,o),
(23,85,cs),
(23,84,o),
(23,83,o),
(23,81,cs),
(23,34,o),
(53,0,o),
(89,0,cs),
(142,0,o),
(179,34,o),
(210,74,cs),
(219,85,o),
(245,126,o),
(249,133,c),
(241,80,o),
(231,28,o),
(221,-15,cs),
(215,-44,o),
(186,-148,o),
(164,-185,cs),
(130,-243,o),
(113,-251,o),
(69,-251,cs),
(47,-251,o),
(0,-239,o),
(-12,-237,cs),
(-17,-236,ls),
(-28,-234,o),
(-41,-242,o),
(-42,-256,cs),
(-43,-277,o),
(-33,-282,o),
(-26,-284,cs,{
name = "💚";
}),
(10,-294,o),
(42,-300,o),
(69,-300,cs)
);
},
{
closed = 1;
nodes = (
(73,87,ls),
(73,123,o),
(85,174,o),
(92,195,cs),
(104,230,o),
(123,276,o),
(172,293,cs),
(210,306,o),
(265,299,o),
(269,299,c,{
name = "🔷";
}),
(275,299,l),
(258,243,o),
(208,152,o),
(172,106,cs),
(135,59,o),
(108,43,o),
(89,49,cs),
(80,52,o),
(73,69,o),
(73,86,c,{
name = "🔷";
})
);
}
);
width = 349;
}
);
metricRight = "=n-8";
unicode = 103;
},
{
glyphname = h;
lastChange = "2022-02-01 15:05:02 +0000";
layers = (
{
layerId = m002;
shapes = (
{
closed = 1;
nodes = (
(42,0,o),
(43,4,o),
(43,6,cs),
(56,77,l),
(88,133,o),
(119,174,o),
(137,202,cs),
(182,271,o),
(218,338,o),
(281,338,cs),
(303,338,o),
(308,318,o),
(308,294,cs),
(308,290,o),
(259,7,o),
(259,7,c),
(259,6,ls),
(259,2,o),
(261,0,o),
(265,0,cs),
(268,0,o),
(270,1,o),
(271,5,c),
(271,5,o),
(322,290,o),
(322,294,cs),
(322,329,o),
(310,350,o),
(281,350,cs),
(208,350,o),
(175,284,o),
(127,210,cs),
(112,187,o),
(87,153,o),
(61,111,c),
(156,641,l),
(156,643,ls),
(156,644,o),
(156,650,o),
(150,650,cs),
(147,650,o),
(145,647,o),
(144,644,c),
(30,7,l),
(30,6,ls),
(30,4,o),
(30,0,o),
(36,0,cs)
);
}
);
width = 340;
},
{
layerId = m003;
shapes = (
{
closed = 1;
nodes = (
(76,0,o),
(77,12,o),
(79,22,cs),
(90,84,l),
(108,113,o),
(126,140,o),
(157,186,cs),
(189,233,o),
(245,300,o),
(279,300,cs),
(297,300,o),
(296,285,o),
(292,263,cs),
(291,256,o),
(247,26,o),
(247,26,c),
(247,25,ls),
(247,8,o),
(256,0,o),
(271,0,cs),
(283,0,o),
(292,6,o),
(295,18,c),
(295,18,o),
(344,291,o),
(344,298,cs),
(344,321,o),
(330,347,o),
(291,350,cs),
(233,355,o),
(176,301,o),
(135,241,cs),
(133,238,o),
(119,217,o),
(112,206,c),
(186,614,l),
(187,619,ls),
(188,625,o),
(194,650,o),
(164,650,cs),
(141,650,o),
(139,632,o),
(138,626,cs,{
name = "💚";
}),
(30,26,l),
(30,22,ls),
(30,20,o),
(30,0,o),
(52,0,cs)
);
}
);
width = 372;
}
);
metricLeft = o;
metricRight = n;
unicode = 104;
},
{
glyphname = i;
lastChange = "2022-02-01 13:06:31 +0000";
layers = (
{
layerId = m002;
shapes = (
{
closed = 1;
nodes = (
(39,0,o),
(42,2,o),
(42,5,c),
(104,344,ls),
(105,349,o),
(100,350,o),
(97,350,cs,{
name = "❌";
}),
(94,350,o),
(92,349,o),
(91,346,c),
(30,7,l),
(30,6,ls),
(30,4,o),
(30,0,o),
(36,0,cs)
);
},
{
closed = 1;
nodes = (
(109,463,o),
(112,459,o),
(117,459,cs),
(122,459,o),
(126,462,o),
(126,466,cs),
(126,471,o),
(122,474,o),
(117,474,cs),
(112,474,o),
(109,470,o),
(109,466,cs)
);
}
);
width = 144;
},
{
layerId = m003;
shapes = (
{
closed = 1;
nodes = (
(75,0,o),
(80,17,o),
(80,19,cs),
(135,323,ls),
(138,340,o),
(129,350,o),
(111,350,cs),
(89,350,o),
(87,336,o),
(86,332,cs),
(31,30,l),
(30,25,ls,{
name = "💚";
}),
(29,21,o),
(27,0,o),
(55,0,cs)
);
},
{
closed = 1;
nodes = (
(150,441,o),
(163,453,o),
(163,467,cs),
(163,482,o),
(150,494,o),
(135,494,cs),
(120,494,o),
(108,481,o),
(108,467,cs),
(108,454,o),
(120,441,o),
(135,441,cs)
);
}
);
width = 191;
}
);
metricLeft = o;
metricRight = n;
unicode = 105;
},
{
glyphname = j;
lastChange = "2022-02-01 15:07:29 +0000";
layers = (
{
layerId = m002;
shapes = (
{
closed = 1;
nodes = (
(-33,-300,o),
(4,-224,o),
(49,1,cs),
(108,343,l),
(108,348,o),
(106,350,o),
(102,350,cs),
(99,350,o),
(96,348,o),
(96,345,c),
(36,1,ls),
(-7,-217,o),
(-42,-287,o),
(-125,-287,cs),
(-152,-287,o),
(-167,-286,o),
(-203,-278,c),
(-205,-277,l),
(-208,-277,o),
(-212,-281,o),
(-212,-284,cs),
(-212,-287,o),
(-209,-290,o),
(-206,-290,c),
(-170,-299,o),
(-153,-300,o),
(-125,-300,cs)
);
},
{
closed = 1;
nodes = (
(115,463,o),
(118,458,o),
(124,458,cs),
(128,458,o),
(132,462,o),
(132,466,cs),
(132,471,o),
(128,474,o),
(124,474,cs),
(118,474,o),
(115,470,o),
(115,466,cs)
);
}
);
width = 151;
},
{
layerId = m003;
shapes = (
{
closed = 1;
nodes = (
(-8,-278,o),
(22,-283,o),
(81,1,cs),
(141,326,l),
(141,343,o),
(133,350,o),
(116,350,cs),
(104,350,o),
(94,345,o),
(91,330,cs),
(26,1,ls),
(-15,-204,o),
(-34,-250,o),
(-103,-250,cs),
(-130,-250,o),
(-148,-250,o),
(-169,-243,cs),
(-172,-242,ls),
(-181,-239,o),
(-198,-249,o),
(-200,-263,cs),
(-202,-278,o),
(-190,-288,o),
(-184,-290,cs),
(-147,-302,o),
(-91,-300,o),
(-91,-300,c)
);
},
{
closed = 1;
nodes = (
(116,454,o),
(124,441,o),
(144,441,cs),
(157,441,o),
(166,454,o),
(166,464,cs),
(166,478,o),
(157,491,o),
(141,491,cs),
(124,491,o),
(116,478,o),
(116,464,cs)
);
}
);
width = 186;
}
);
unicode = 106;
},
{
glyphname = k;
lastChange = "2022-02-01 15:14:56 +0000";
layers = (
{
layerId = m002;
shapes = (
{
closed = 1;
nodes = (
(39,0,o),
(43,2,o),
(43,5,c),
(57,76,l),
(117,182,o),
(156,251,o),
(213,308,cs),
(231,326,o),
(245,343,o),
(273,338,cs),
(296,334,o),
(293,281,o),
(286,260,cs),
(264,194,o),
(196,183,o),
(183,170,cs),
(181,168,o),
(181,165,o),
(184,162,cs,{
name = "💚";
}),
(195,151,o),
(319,15,o),
(332,1,c),
(335,0,ls),
(340,-2,o),
(343,1,o),
(343,5,cs),
(343,6,o),
(342,9,o),
(339,12,cs),
(329,22,o),
(209,155,o),
(200,165,c),
(217,171,o),
(275,198,o),
(298,256,cs),
(309,283,o),
(310,346,o),
(273,350,cs),
(243,353,o),
(222,337,o),
(203,318,cs),
(168,283,o),
(109,201,o),
(63,112,c),
(157,642,ls),
(158,646,o),
(154,650,o),
(151,650,cs),
(148,650,o),
(145,647,o),
(144,644,c),
(30,7,l),
(30,6,ls),
(30,4,o),
(30,0,o),
(36,0,cs)
);
}
);
width = 353;
},
{
layerId = m003;
shapes = (
{
closed = 1;
nodes = (
(70,0,o),
(76,7,o),
(79,15,cs,{
name = "💚";
}),
(81,21,l),
(110,144,o),
(131,172,o),
(158,210,cs),
(196,263,o),
(244,302,o),
(271,304,cs),
(288,305,o),
(281,275,o),
(276,260,cs),
(261,216,o),
(201,204,o),
(182,185,cs),
(172,175,o),
(171,160,o),
(183,151,c),
(217,116,o),
(288,40,o),
(323,5,c),
(328,2,ls,{
name = "❌";
}),
(342,-6,o),
(365,12,o),
(366,19,cs),
(367,26,o),
(363,35,o),
(355,44,cs),
(338,63,o),
(247,156,o),
(242,161,c),
(256,170,o),
(314,204,o),
(325,245,cs),
(338,296,o),
(328,350,o),
(285,350,cs),
(227,350,o),
(183,316,o),
(149,273,cs),
(129,248,o),
(122,231,o),
(117,224,c),
(189,621,ls),
(192,637,o),
(183,650,o),
(165,650,cs),
(148,650,o),
(141,636,o),
(140,631,cs,{
name = "💚";
}),
(31,31,l),
(30,26,ls),
(29,19,o),
(30,0,o),
(50,0,cs)
);
}
);
width = 399;
}
);
metricLeft = o;
unicode = 107;
},
{
glyphname = l;
lastChange = "2022-02-01 13:07:53 +0000";
layers = (
{
layerId = m002;
shapes = (
{
closed = 1;
nodes = (
(39,0,o),
(42,2,o),
(43,5,c),
(158,643,l),
(159,646,o),
(154,650,o),
(151,650,cs),
(148,650,o),
(145,647,o),
(144,644,c),
(30,7,l),
(30,6,ls),
(30,4,o),
(30,0,o),
(36,0,cs)
);
}
);
width = 148;
},
{
layerId = m003;
shapes = (
{
closed = 1;
nodes = (
(77,0,o),
(82,15,o),
(83,18,cs),
(192,622,ls),
(195,638,o),
(186,650,o),
(165,650,cs),
(149,650,o),
(142,636,o),
(141,632,cs),
(31,27,l),
(30,22,ls,{
name = "💚";
}),
(29,18,o),
(34,0,o),
(57,0,cs)
);
}
);
width = 183;
}
);
metricLeft = o;
unicode = 108;
},
{
glyphname = m;
lastChange = "2022-02-01 15:22:03 +0000";
layers = (
{
layerId = m002;
shapes = (
{
closed = 1;
nodes = (
(16,0,o),
(19,3,o),
(20,6,c),
(32,76,l),
(82,170,o),
(95,191,o),
(99,197,cs),
(115,224,ls),
(144,273,o),
(180,338,o),
(227,338,cs),
(255,338,o),
(267,322,o),
(267,291,cs),
(267,269,o),
(248,165,o),
(238,106,cs),
(221,7,l),
(221,2,o),
(225,0,o),
(228,0,cs),
(231,0,o),
(233,3,o),
(234,6,c),
(247,80,l),
(249,83,o),
(298,165,o),
(314,189,cs),
(324,204,ls),
(346,237,o),
(377,286,o),
(408,317,cs),
(423,332,o),
(439,338,o),
(459,338,cs),
(482,338,o),
(488,314,o),
(488,283,cs),
(488,233,o),
(455,45,o),
(447,7,cs),
(446,2,o),
(449,0,o),
(453,0,cs),
(456,0,o),
(459,3,o),
(460,6,c),
(477,105,ls),
(486,158,o),
(501,256,o),
(501,283,cs),
(501,320,o),
(495,350,o),
(459,350,cs),
(435,350,o),
(414,343,o),
(398,327,cs),
(368,297,o),
(336,244,o),
(303,196,cs),
(290,177,o),
(275,154,o),
(253,116,c),
(264,174,o),
(279,270,o),
(279,291,cs),
(279,328,o),
(263,350,o),
(227,350,cs),
(169,350,o),
(133,280,o),
(89,205,cs),
(74,180,o),
(60,154,o),
(39,114,c),
(80,343,l),
(80,344,ls),
(80,345,o),
(80,350,o),
(74,350,cs),
(71,350,o),
(69,348,o),
(68,345,c),
(7,7,l),
(7,6,ls),
(7,4,o),
(7,0,o),
(13,0,cs)
);
}
);
width = 526;
},
{
layerId = m003;
shapes = (
{
closed = 1;
nodes = (
(51,0,o),
(56,14,o),
(57,17,cs,{
name = "💚";
}),
(69,80,l),
(86,115,o),
(110,161,o),
(124,184,cs),
(142,214,ls),
(166,255,o),
(191,291,o),
(215,301,cs),
(229,307,o),
(243,298,o),
(243,285,cs),
(243,254,o),
(217,114,o),
(216,107,cs),
(201,23,l),
(201,13,o),
(206,0,o),
(224,0,cs),
(249,0,o),
(251,16,o),
(251,18,cs,{
name = "💚";
}),
(261,78,l),
(271,102,o),
(269,100,o),
(322,179,cs),
(332,194,ls),
(357,231,o),
(365,247,o),
(391,277,cs),
(409,298,o),
(419,300,o),
(428,300,cs),
(442,300,o),
(444,288,o),
(442,267,cs),
(439,221,o),
(408,42,o),
(404,22,cs),
(403,16,o),
(405,0,o),
(428,0,cs),
(449,0,o),
(453,14,o),
(453,16,cs,{
name = "💚";
}),
(469,105,ls),
(479,158,o),
(492,253,o),
(492,280,cs),
(492,321,o),
(473,350,o),
(433,350,cs),
(402,350,o),
(392,344,o),
(376,333,cs),
(355,318,o),
(311,252,o),
(303,241,cs),
(297,232,o),
(291,222,o),
(284,212,c),
(290,251,o),
(294,265,o),
(292,292,cs),
(290,328,o),
(263,350,o),
(223,350,cs),
(171,350,o),
(139,299,o),
(115,262,cs),
(110,255,o),
(103,243,o),
(95,229,c),
(113,328,l),
(113,333,ls),
(113,335,o),
(111,350,o),
(91,350,cs,{
name = "❌";
}),
(70,350,o),
(65,334,o),
(65,333,cs,{
name = "💚";
}),
(10,27,l),
(9,20,ls),
(8,15,o),
(9,0,o),
(31,0,cs)
);
}
);
width = 527;
}
);
metricLeft = n;
metricRight = "=n+7";
unicode = 109;
},
{
glyphname = n;
lastChange = "2022-02-02 07:04:35 +0000";
layers = (
{
layerId = m002;
shapes = (
{
closed = 1;
nodes = (
(19,0,o),
(19,3,o),
(19,5,cs,{
name = "💚";
}),
(31,72,l),
(63,128,o),
(91,175,o),
(112,208,cs),
(145,260,o),
(188,299,o),
(218,318,cs),
(232,327,o),
(252,340,o),
(275,338,cs),
(306,336,o),
(317,308,o),
(314,287,c),
(263,6,l,{
name = "💚";
}),
(262,1,o),
(266,0,o),
(269,0,cs),
(272,0,o),
(275,1,o),
(276,5,c,{
name = "💚";
}),
(327,287,l),
(332,317,o),
(312,348,o),
(275,350,cs),
(250,351,o),
(226,339,o),
(211,329,cs),
(179,307,o),
(135,268,o),
(102,216,cs),
(86,191,o),
(58,144,o),
(37,108,c),
(80,343,l),
(80,344,ls),
(80,345,o),
(80,350,o),
(74,350,cs),
(71,350,o),
(68,348,o),
(68,345,c),
(7,7,l),
(7,6,ls),
(7,4,o),
(7,0,o),
(13,0,cs)
);
}
);
width = 346;
},
{
layerId = m003;
shapes = (
{
closed = 1;
nodes = (
(55,0,o),
(59,19,o),
(60,22,cs,{
name = "💚";
}),
(70,76,l),
(103,135,o),
(127,175,o),
(136,188,cs),
(159,221,o),
(199,268,o),
(230,287,cs),
(245,296,o),
(255,299,o),
(265,300,cs),
(283,302,o),
(287,294,o),
(287,280,c),
(256,22,l,{
name = "💚";
}),
(256,6,o),
(269,0,o),
(279,0,cs),
(294,0,o),
(302,4,o),
(304,16,c,{
name = "💚";
}),
(337,279,l),
(337,316,o),
(315,350,o),
(282,350,cs),
(251,350,o),
(232,344,o),
(213,335,cs),
(179,319,o),
(131,261,o),
(106,231,cs),
(101,225,o),
(98,221,o),
(94,215,c),
(114,323,l),
(114,326,ls),
(114,330,o),
(114,350,o),
(90,350,cs),
(68,350,o),
(65,332,o),
(65,331,cs,{
name = "💚";
}),
(11,33,l),
(10,27,ls),
(9,23,o),
(4,0,o),
(35,0,cs)
);
}
);
width = 365;
}
);
unicode = 110;
},
{
glyphname = o;
lastChange = "2022-02-02 07:07:19 +0000";
layers = (
{
layerId = m002;
shapes = (
{
closed = 1;
nodes = (
(131,0,o),
(254,148,o),
(254,250,cs),
(254,314,o),
(222,350,o),
(178,350,cs),
(142,350,o),
(103,343,o),
(67,274,cs),
(53,247,o),
(30,173,o),
(30,105,cs),
(30,26,o),
(48,0,o),
(83,0,cs)
);
},
{
closed = 1;
nodes = (
(42,155,o),
(60,231,o),
(78,267,cs),
(109,330,o),
(145,337,o),
(178,337,cs),
(209,337,o),
(241,314,o),
(241,250,cs),
(241,150,o),
(118,13,o),
(83,13,cs),
(52,13,o),
(42,43,o),
(42,105,cs)
);
}
);
width = 284;
},
{
layerId = m003;
shapes = (
{
closed = 1;
nodes = (
(146,0,o),
(278,114,o),
(278,247,cs),
(278,312,o),
(240,350,o),
(195,350,cs),
(142,350,o),
(107,344,o),
(67,272,cs),
(52,245,o),
(30,171,o),
(30,109,cs),
(30,23,o),
(64,0,o),
(99,0,cs)
);
},
{
closed = 1;
nodes = (
(80,155,o),
(96,217,o),
(112,249,cs),
(138,301,o),
(158,300,o),
(193,300,cs),
(211,300,o),
(228,283,o),
(228,247,cs),
(228,153,o),
(126,50,o),
(99,50,cs),
(82,50,o),
(80,81,o),
(80,108,cs)
);
}
);
width = 308;
}
);
unicode = 111;
},
{
glyphname = p;
lastChange = "2022-02-02 07:09:14 +0000";
layers = (
{
layerId = m002;
shapes = (
{
closed = 1;
nodes = (
(-28,-300,o),
(-25,-298,o),
(-25,-295,c),
(40,70,l),
(73,39,o),
(102,10,o),
(150,10,cs),
(271,10,o),
(311,155,o),
(311,261,cs),
(311,300,o),
(300,350,o),
(258,350,cs),
(226,350,o),
(176,300,o),
(133,247,cs),
(108,216,o),
(80,171,o),
(49,119,c),
(69,229,o),
(86,331,o),
(89,343,cs),
(90,347,o),
(87,350,o),
(83,350,cs),
(80,350,o),
(77,348,o),
(77,345,c),
(71,316,o),
(-34,-272,o),
(-38,-293,cs),
(-39,-298,o),
(-35,-300,o),
(-31,-300,cs)
);
},
{
closed = 1;
nodes = (
(83,150,o),
(114,203,o),
(143,239,cs),
(184,290,o),
(231,337,o),
(258,337,cs),
(292,337,o),
(298,290,o),
(298,261,cs),
(298,161,o),
(261,23,o),
(150,23,cs),
(105,23,o),
(81,50,o),
(45,84,c)
);
}
);
width = 341;
},
{
layerId = m003;
shapes = (
{
closed = 1;
nodes = (
(10,-300,o),
(12,-285,o),
(13,-281,cs,{
name = "💚";
}),
(71,31,l),
(83,23,o),
(121,0,o),
(163,0,cs),
(289,0,o),
(340,155,o),
(332,262,cs),
(329,307,o),
(308,350,o),
(269,350,cs),
(225,350,o),
(179,303,o),
(137,253,cs),
(127,241,o),
(120,232,o),
(103,209,c),
(109,241,o),
(114,273,o),
(123,320,cs),
(126,336,o),
(115,350,o),
(99,350,cs),
(87,350,o),
(76,342,o),
(74,330,cs,{
name = "💚";
}),
(67,285,o),
(-33,-253,o),
(-36,-274,cs),
(-38,-286,o),
(-26,-300,o),
(-16,-300,cs)
);
},
{
closed = 1;
nodes = (
(118,151,o),
(148,188,o),
(178,224,cs),
(234,292,o),
(257,300,o),
(265,300,cs),
(277,300,o),
(281,279,o),
(282,252,cs),
(287,160,o),
(243,50,o),
(165,50,cs),
(133,50,o),
(109,65,o),
(80,85,c)
);
}
);
width = 363;
}
);
metricLeft = "=n-45";
metricRight = o;
unicode = 112;
},
{
glyphname = q;
lastChange = "2022-02-02 07:10:26 +0000";
layers = (
{
layerId = m002;
shapes = (
{
closed = 1;
nodes = (
(193,-302,o),
(196,-299,o),
(198,-295,cs),
(229,-234,o),
(277,-179,o),
(312,-144,c),
(313,-142,o),
(313,-141,o),
(313,-139,cs),
(313,-136,o),
(311,-132,o),
(307,-132,cs),
(305,-132,o),
(303,-133,o),
(302,-134,cs),
(271,-165,o),
(233,-212,o),
(202,-262,c),
(311,342,l),
(311,343,ls),
(311,347,o),
(306,350,o),
(302,350,cs),
(268,350,ls),
(246,350,o),
(201,350,o),
(178,348,cs),
(132,344,o),
(99,319,o),
(74,285,cs),
(47,249,o),
(30,160,o),
(30,107,cs),
(30,41,o),
(42,0,o),
(79,0,cs),
(96,0,o),
(115,11,o),
(130,23,cs),
(176,60,o),
(255,202,o),
(284,265,c),
(185,-290,ls),
(184,-294,o),
(185,-299,o),
(188,-300,cs)
);
},
{
closed = 1;
nodes = (
(42,159,o),
(59,243,o),
(84,277,cs),
(108,310,o),
(136,332,o),
(180,336,cs),
(201,338,o),
(246,338,o),
(268,338,cs),
(294,338,l),
(269,243,o),
(164,66,o),
(122,33,cs),
(108,22,o),
(93,13,o),
(79,13,cs),
(51,13,o),
(42,50,o),
(42,107,cs)
);
}
);
width = 331;
},
{
layerId = m003;
shapes = (
{
closed = 1;
nodes = (
(202,-301,o),
(218,-298,o),
(223,-289,cs),
(253,-235,o),
(291,-184,o),
(330,-147,c),
(333,-143,o),
(335,-138,o),
(335,-130,cs),
(335,-118,o),
(325,-104,o),
(312,-104,cs),
(306,-104,o),
(301,-105,o),
(298,-108,cs),
(269,-137,o),
(254,-154,o),
(246,-164,c),
(332,317,l),
(333,323,ls),
(335,335,o),
(322,350,o),
(306,350,cs),
(274,350,ls),
(253,350,o),
(210,350,o),
(189,349,cs),
(138,347,o),
(101,321,o),
(74,282,cs),
(46,242,o),
(30,158,o),
(30,99,cs),
(30,33,o),
(61,0,o),
(95,0,cs),
(109,0,o),
(131,9,o),
(148,21,cs),
(182,44,o),
(237,107,o),
(249,135,c),
(176,-273,ls),
(173,-287,o),
(183,-299,o),
(194,-300,cs)
);
},
{
closed = 1;
nodes = (
(80,152,o),
(98,228,o),
(115,253,cs),
(131,277,o),
(159,297,o),
(191,299,cs),
(210,300,o),
(243,300,o),
(264,300,cs),
(278,300,l),
(252,228,o),
(177,100,o),
(121,61,cs),
(113,55,o),
(105,50,o),
(98,50,cs),
(86,50,o),
(80,70,o),
(80,102,cs)
);
}
);
width = 363;
}
);
metricLeft = o;
metricRight = n;
unicode = 113;
},
{
glyphname = r;
lastChange = "2022-02-02 07:23:54 +0000";
layers = (
{
layerId = m002;
shapes = (
{
closed = 1;
nodes = (
(16,0,o),
(20,3,o),
(20,6,c),
(33,80,l),
(65,145,o),
(96,189,o),
(118,216,cs),
(159,266,o),
(202,317,o),
(242,333,cs),
(250,336,o),
(258,338,o),
(266,338,cs),
(279,338,o),
(293,328,o),
(293,301,cs),
(293,294,o),
(292,288,o),
(292,279,cs),
(292,276,o),
(294,272,o),
(298,272,cs),
(301,272,o),
(304,275,o),
(304,278,c),
(306,286,o),
(306,294,o),
(306,301,cs),
(306,324,o),
(295,350,o),
(266,350,cs),
(250,350,o),
(227,341,o),
(211,329,cs),
(179,305,o),
(155,279,o),
(108,223,cs),
(90,201,o),
(64,166,o),
(41,123,c),
(80,344,ls),
(81,348,o),
(78,350,o),
(74,350,cs),
(71,350,o),
(67,348,o),
(67,345,c),
(7,6,l),
(6,3,o),
(9,0,o),
(13,0,cs)
);
}
);
width = 296;
},
{
layerId = m003;
shapes = (
{
closed = 1;
nodes = (
(60,0,o),
(60,19,o),
(60,21,cs,{
name = "💚";
}),
(70,83,l),
(87,117,o),
(107,151,o),
(120,168,cs),
(144,199,o),
(165,227,o),
(194,256,cs),
(204,266,o),
(227,293,o),
(248,301,cs,{
name = "🔷";
}),
(255,304,o),
(265,301,o),
(267,293,cs),
(268,288,o),
(266,284,o),
(266,269,cs),
(266,258,o),
(275,243,o),
(292,243,cs),
(307,243,o),
(314,258,o),
(316,272,cs,{
name = "💚";
}),
(318,286,o),
(317,293,o),
(316,300,cs),
(312,324,o),
(297,350,o),
(265,350,cs),
(244,350,o),
(227,346,o),
(209,334,cs),
(177,312,o),
(130,263,o),
(107,234,cs),
(103,229,o),
(98,223,o),
(95,219,c),
(113,323,ls),
(116,339,o),
(103,350,o),
(91,350,cs),
(64,350,o),
(64,333,o),
(64,331,cs,{
name = "💚";
}),
(10,27,ls,{
name = "💚";
}),
(7,13,o),
(17,0,o),
(33,0,cs)
);
}
);
width = 317;
}
);
metricLeft = n;
unicode = 114;
},
{
glyphname = s;
lastChange = "2022-02-02 07:28:35 +0000";
layers = (
{
layerId = m002;
shapes = (
{
closed = 1;
nodes = (
(131,0,o),
(164,6,o),
(189,40,cs),
(204,62,o),
(202,91,o),
(199,109,cs),
(191,149,o),
(146,180,o),
(120,197,cs),
(79,224,o),
(52,241,o),
(52,263,cs),
(52,306,o),
(104,337,o),
(140,337,cs),
(219,337,ls),
(222,337,o),
(226,339,o),
(226,343,cs),
(226,347,o),
(222,349,o),
(219,350,c),
(140,350,ls),
(91,350,o),
(38,308,o),
(38,263,cs),
(38,234,o),
(72,211,o),
(113,187,cs),
(133,175,o),
(177,144,o),
(185,107,cs),
(188,90,o),
(192,65,o),
(179,48,cs),
(156,16,o),
(129,13,o),
(88,13,cs),
(55,13,o),
(9,21,o),
(-5,21,c),
(-6,22,l),
(-10,21,o),
(-12,19,o),
(-12,15,cs),
(-12,12,o),
(-10,9,o),
(-7,9,c),
(7,6,o),
(54,0,o),
(88,0,cs)
);
}
);
width = 239;
},
{
layerId = m003;
shapes = (
{
closed = 1;
nodes = (
(142,0,o),
(200,7,o),
(221,36,cs),
(245,69,o),
(242,106,o),
(236,125,cs),
(228,152,o),
(178,187,o),
(157,198,cs),
(112,222,o),
(92,240,o),
(92,255,cs),
(92,276,o),
(130,300,o),
(159,300,cs),
(236,300,ls),
(249,300,o),
(264,308,o),
(264,324,cs),
(264,350,o),
(241,350,o),
(236,350,cs,{
name = "💚";
}),
(159,350,ls),
(117,350,o),
(42,314,o),
(40,257,cs),
(39,225,o),
(63,193,o),
(122,161,cs),
(146,148,o),
(181,127,o),
(188,111,cs),
(192,102,o),
(194,81,o),
(178,65,cs),
(166,53,o),
(133,50,o),
(107,50,cs),
(74,50,o),
(27,58,o),
(13,58,cs,{
name = "💚";
}),
(11,58,ls,{
name = "💚";
}),
(0,58,o),
(-12,49,o),
(-12,36,cs),
(-12,22,o),
(-5,12,o),
(6,10,cs,{
name = "💚";
}),
(20,7,o),
(73,0,o),
(107,0,cs)
);
}
);
width = 277;
}
);
metricLeft = "=o-42";
metricRight = "=o-17";
unicode = 115;
},
{
glyphname = t;
lastChange = "2022-02-01 13:09:29 +0000";
layers = (
{
layerId = m002;
shapes = (
{
closed = 1;
nodes = (
(91,0,o),
(91,3,o),
(91,5,cs),
(153,338,l),
(259,338,ls),
(260,338,o),
(265,338,o),
(265,344,cs),
(265,350,o),
(260,350,o),
(259,350,cs),
(155,350,l),
(206,643,l),
(206,644,ls),
(206,645,o),
(206,650,o),
(200,650,cs),
(197,650,o),
(195,648,o),
(194,645,c),
(142,350,l),
(36,350,ls),
(34,350,o),
(30,350,o),
(30,344,cs),
(30,338,o),
(34,338,o),
(36,338,cs),
(139,338,l),
(79,7,l),
(79,6,ls),
(79,4,o),
(79,0,o),
(85,0,cs)
);
}
);
width = 235;
},
{
layerId = m003;
shapes = (
{
closed = 1;
nodes = (
(126,0,o),
(129,19,o),
(129,21,cs),
(179,300,l),
(267,300,ls),
(271,300,o),
(290,300,o),
(290,325,cs),
(290,350,o),
(269,350,o),
(266,350,cs),
(189,350,l),
(238,621,l),
(238,626,ls),
(238,631,o),
(238,650,o),
(214,650,cs),
(192,650,o),
(190,633,o),
(189,629,cs,{
name = "💚";
}),
(138,350,l),
(53,350,ls),
(49,350,o),
(30,350,o),
(30,325,cs),
(30,300,o),
(49,300,o),
(53,300,cs),
(129,300,l),
(80,30,l),
(79,25,ls),
(79,23,o),
(78,0,o),
(105,0,cs)
);
}
);
width = 318;
}
);
metricLeft = o;
unicode = 116;
},
{
glyphname = u;
lastChange = "2022-02-02 07:32:47 +0000";
layers = (
{
layerId = m002;
shapes = (
{
closed = 1;
nodes = (
(93,0,o),
(115,21,o),
(129,33,cs),
(188,85,o),
(232,149,o),
(291,234,c),
(250,6,l),
(250,2,o),
(252,0,o),
(256,0,cs),
(259,0,o),
(261,2,o),
(262,5,c),
(323,343,l),
(323,344,ls),
(323,345,o),
(323,350,o),
(317,350,cs),
(311,350,o),
(311,347,o),
(311,345,cs),
(296,265,l),
(229,165,o),
(182,96,o),
(121,43,cs),
(107,31,o),
(87,13,o),
(68,13,cs),
(52,13,o),
(22,25,o),
(30,66,cs),
(81,343,l),
(81,344,o),
(81,344,o),
(81,344,c),
(81,348,o),
(77,350,o),
(74,350,cs),
(71,350,o),
(69,349,o),
(68,345,c,{
name = "💚";
}),
(18,68,ls),
(11,28,o),
(36,0,o),
(68,0,cs)
);
}
);
width = 341;
},
{
layerId = m003;
shapes = (
{
closed = 1;
nodes = (
(116,0,o),
(139,23,o),
(153,34,cs),
(185,59,o),
(248,134,o),
(263,156,c),
(240,25,ls,{
name = "💚";
}),
(239,17,o),
(247,0,o),
(263,0,cs),
(289,0,o),
(289,17,o),
(289,19,cs,{
name = "💚";
}),
(344,326,l),
(344,329,ls),
(344,330,o),
(344,350,o),
(320,350,cs),
(297,350,o),
(295,335,o),
(295,333,cs),
(285,275,l),
(223,184,o),
(175,119,o),
(122,72,cs),
(106,58,o),
(96,50,o),
(86,50,cs),
(77,50,o),
(67,59,o),
(71,78,cs),
(115,326,l),
(115,326,o),
(115,328,o),
(115,328,c),
(116,335,o),
(110,350,o),
(91,350,cs),
(76,350,o),
(68,342,o),
(66,333,c,{
name = "💚";
}),
(20,80,ls),
(15,46,o),
(39,0,o),
(88,0,cs)
);
}
);
width = 372;
}
);
metricLeft = "=n+10";
metricRight = n;
unicode = 117;
},
{
glyphname = v;
lastChange = "2022-02-02 08:52:30 +0000";
layers = (
{
layerId = m002;
shapes = (
{
closed = 1;
nodes = (
(92,0,o),
(115,32,o),
(145,72,cs),
(168,102,o),
(272,281,o),
(296,329,c),
(311,310,o),
(328,304,o),
(331,303,cs),
(334,302,l),
(338,302,o),
(340,306,o),
(340,309,cs),
(340,311,o),
(339,313,o),
(338,314,c),
(324,321,o),
(311,328,o),
(304,342,cs),
(303,344,o),
(299,350,o),
(297,350,cs),
(292,350,o),
(292,352,o),
(288,343,cs,{
name = "💚";
}),
(268,297,o),
(153,102,o),
(135,79,cs),
(106,41,o),
(86,12,o),
(64,12,cs),
(31,12,o),
(33,83,o),
(43,141,cs),
(77,342,l),
(77,343,ls),
(77,345,o),
(77,350,o),
(71,350,cs),
(68,350,o),
(65,347,o),
(64,344,c),
(64,344,o),
(40,202,o),
(30,141,cs),
(13,32,o),
(35,0,o),
(66,0,cs)
);
}
);
width = 330;
},
{
layerId = m003;
shapes = (
{
closed = 1;
nodes = (
(112,0,o),
(132,21,o),
(162,60,cs),
(198,108,o),
(280,251,o),
(295,282,c),
(307,275,o),
(318,267,o),
(329,271,cs),
(334,273,l),
(344,279,o),
(354,289,o),
(345,307,cs),
(344,309,o),
(339,315,o),
(333,318,cs,{
name = "💚";
}),
(319,325,o),
(315,329,o),
(307,342,cs),
(302,350,o),
(295,350,o),
(288,350,cs),
(278,350,o),
(269,343,o),
(265,334,cs,{
name = "💚";
}),
(242,280,o),
(140,111,o),
(124,91,cs),
(99,60,o),
(87,50,o),
(81,50,cs),
(64,50,o),
(73,107,o),
(76,122,cs),
(112,320,l),
(112,323,ls),
(112,333,o),
(112,350,o),
(89,350,cs),
(77,350,o),
(65,338,o),
(62,327,c),
(62,327,o),
(27,133,o),
(25,103,cs),
(19,24,o),
(33,0,o),
(77,0,cs)
);
}
);
width = 348;
}
);
metricLeft = "=o-6";
unicode = 118;
},
{
glyphname = w;
lastChange = "2022-02-02 07:59:17 +0000";
layers = (
{
layerId = m002;
shapes = (
{
closed = 1;
nodes = (
(118,0,o),
(192,108,o),
(224,183,cs),
(267,284,l),
(247,193,ls),
(227,100,o),
(220,0,o),
(286,0,cs),
(307,0,o),
(332,24,o),
(362,63,cs),
(396,108,o),
(422,167,o),
(494,328,c),
(502,319,o),
(518,307,o),
(529,304,c,{
name = "🔷";
}),
(530,304,o),
(531,303,o),
(533,303,cs),
(537,303,o),
(539,305,o),
(539,309,cs),
(539,311,o),
(539,313,o),
(537,314,c,{
name = "🔷";
}),
(525,318,o),
(508,331,o),
(501,341,c,{
name = "🔷";
}),
(500,343,o),
(499,346,o),
(497,348,cs),
(495,350,o),
(493,350,o),
(492,350,cs),
(488,350,o),
(486,346,o),
(486,346,cs),
(420,196,ls),
(401,153,o),
(368,92,o),
(352,71,cs),
(324,35,o),
(302,14,o),
(286,13,cs),
(266,12,o),
(251,31,o),
(248,60,cs),
(244,96,o),
(252,149,o),
(259,191,cs),
(264,217,o),
(293,339,o),
(293,344,cs),
(293,348,o),
(289,350,o),
(286,350,cs),
(282,350,o),
(279,346,o),
(277,342,cs),
(262,303,o),
(226,218,o),
(212,186,cs),
(181,115,o),
(110,13,o),
(63,13,cs),
(51,13,o),
(38,29,o),
(37,47,cs),
(34,99,o),
(51,176,o),
(81,344,c),
(81,348,o),
(79,350,o),
(76,350,cs),
(71,350,o),
(70,345,o),
(70,345,cs,{
name = "💚";
}),
(34,160,o),
(21,84,o),
(25,44,cs),
(28,17,o),
(47,0,o),
(63,0,cs)
);
}
);
width = 529;
},
{
layerId = m003;
shapes = (
{
closed = 1;
nodes = (
(128,0,o),
(178,68,o),
(193,96,cs),
(219,146,l),
(212,99,ls),
(205,51,o),
(223,0,o),
(282,0,cs),
(307,0,o),
(331,23,o),
(360,61,cs),
(387,97,o),
(427,182,o),
(472,282,c),
(478,278,o),
(483,275,o),
(490,273,cs),
(493,272,o),
(497,270,o),
(503,271,cs),
(511,272,o),
(520,279,o),
(523,290,cs),
(526,301,o),
(519,314,o),
(512,317,cs),
(498,323,o),
(490,328,o),
(483,341,cs),
(482,343,o),
(481,345,o),
(478,346,cs),
(474,348,o),
(471,350,o),
(462,350,cs),
(445,350,o),
(441,338,o),
(441,337,cs),
(382,204,ls),
(365,165,o),
(333,108,o),
(317,87,cs),
(295,59,o),
(282,51,o),
(277,51,cs),
(270,51,o),
(265,56,o),
(264,64,cs),
(261,91,o),
(266,149,o),
(273,191,cs),
(278,218,o),
(303,322,o),
(303,328,cs),
(303,336,o),
(293,350,o),
(282,350,cs),
(265,350,o),
(256,343,o),
(253,336,cs),
(236,296,o),
(209,226,o),
(193,194,cs),
(162,133,o),
(104,50,o),
(80,50,cs),
(78,50,o),
(74,51,o),
(74,59,cs),
(74,125,o),
(86,175,o),
(113,326,cs,{
name = "💚";
}),
(114,331,o),
(110,350,o),
(90,350,cs),
(67,350,o),
(65,337,o),
(64,333,cs,{
name = "💚";
}),
(34,171,o),
(21,91,o),
(25,48,cs),
(27,27,o),
(47,0,o),
(79,0,cs)
);
}
);
width = 523;
}
);
metricLeft = v;
metricRight = v;
unicode = 119;
},
{
glyphname = x;
lastChange = "2022-02-02 08:00:07 +0000";
layers = (
{
layerId = m002;
shapes = (
{
closed = 1;
nodes = (
(24,0,o),
(25,0,o),
(27,2,cs),
(160,146,l),
(244,4,ls),
(246,1,o),
(246,0,o),
(250,0,cs),
(253,0,o),
(257,4,o),
(257,7,cs),
(257,8,o),
(256,9,o),
(255,10,c),
(169,156,l),
(339,339,ls),
(340,340,o),
(341,341,o),
(341,343,cs),
(341,347,o),
(338,350,o),
(334,350,cs),
(332,350,o),
(331,349,o),
(329,347,cs),
(162,168,l),
(57,346,l),
(55,348,o),
(53,350,o),
(51,350,cs),
(45,350,o),
(45,344,o),
(45,343,cs),
(45,340,l),
(153,158,l),
(17,12,ls),
(15,10,o),
(15,9,o),
(15,7,cs),
(15,4,o),
(19,0,o),
(22,0,cs)
);
}
);
width = 341;
},
{
layerId = m003;
shapes = (
{
closed = 1;
nodes = (
(47,0,o),
(50,3,o),
(55,8,cs),
(153,114,l),
(215,10,ls),
(217,7,o),
(220,0,o),
(234,0,cs),
(244,0,o),
(256,10,o),
(258,17,cs),
(261,29,o),
(259,34,o),
(256,39,cs,{
name = "💚";
}),
(188,155,l),
(332,308,ls),
(334,311,o),
(338,316,o),
(338,326,cs),
(338,339,o),
(325,350,o),
(313,350,cs),
(302,350,o),
(298,346,o),
(296,344,cs),
(161,200,l),
(80,337,ls,{
name = "💚";
}),
(78,341,o),
(73,350,o),
(59,350,cs),
(31,350,o),
(30,328,o),
(34,317,cs),
(35,314,l),
(125,160,l),
(16,44,ls),
(14,42,o),
(10,38,o),
(10,27,cs),
(10,10,o),
(26,0,o),
(34,0,cs)
);
}
);
width = 328;
}
);
unicode = 120;
},
{
glyphname = y;
lastChange = "2022-02-02 08:51:42 +0000";
layers = (
{
layerId = m002;
shapes = (
{
closed = 1;
nodes = (
(85,-305,o),
(145,-309,o),
(182,-256,cs),
(230,-188,o),
(265,-4,o),
(326,342,cs),
(327,349,o),
(324,350,o),
(320,350,cs),
(317,350,o),
(315,349,o),
(314,344,cs,{
name = "💚";
}),
(310,326,o),
(304,289,o),
(300,270,c),
(239,169,o),
(193,97,o),
(125,39,cs),
(110,26,o),
(89,13,o),
(77,13,cs),
(56,13,o),
(40,31,o),
(40,64,cs),
(40,97,o),
(65,227,o),
(86,342,cs),
(87,348,o),
(84,350,o),
(80,350,cs),
(77,350,o),
(74,349,o),
(73,344,cs,{
name = "💚";
}),
(51,227,o),
(27,96,o),
(27,64,cs),
(27,29,o),
(45,0,o),
(77,0,cs),
(93,0,o),
(117,15,o),
(132,28,cs),
(195,82,o),
(245,153,o),
(294,235,c),
(241,-50,o),
(214,-190,o),
(170,-250,cs),
(135,-296,o),
(96,-292,o),
(13,-277,c),
(9,-278,o),
(7,-280,o),
(7,-284,cs),
(7,-288,o),
(9,-290,o),
(13,-291,cs)
);
}
);
width = 336;
},
{
layerId = m003;
shapes = (
{
closed = 1;
nodes = (
(156,-320,o),
(220,-292,o),
(265,-204,cs),
(293,-149,o),
(327,-20,o),
(381,326,cs),
(382,335,o),
(377,350,o),
(358,350,cs),
(344,350,o),
(334,345,o),
(332,334,cs,{
name = "💚";
}),
(329,314,o),
(326,295,o),
(322,276,c),
(256,175,o),
(194,102,o),
(161,74,cs),
(147,62,o),
(134,50,o),
(122,50,cs),
(111,50,o),
(106,67,o),
(110,90,cs),
(117,129,o),
(149,308,o),
(152,324,cs),
(153,331,o),
(147,350,o),
(126,350,cs),
(114,350,o),
(106,346,o),
(103,332,cs,{
name = "💚";
}),
(99,312,o),
(65,124,o),
(57,80,cs),
(50,39,o),
(84,0,o),
(122,0,cs),
(145,0,o),
(161,11,o),
(179,25,cs),
(225,61,o),
(276,120,o),
(301,156,c),
(293,95,o),
(256,-97,o),
(229,-161,cs),
(185,-265,o),
(142,-268,o),
(36,-236,c),
(21,-236,o),
(9,-245,o),
(9,-258,cs),
(9,-277,o),
(23,-283,o),
(32,-286,cs)
);
}
);
width = 401;
}
);
metricLeft = n;
metricRight = g;
metricTop = n;
unicode = 121;
},
{
glyphname = z;
lastChange = "2022-02-01 08:25:17 +0000";
layers = (
{
layerId = m002;
shapes = (
{
closed = 1;
nodes = (
(312,0,ls),
(315,0,o),
(319,4,o),
(319,7,cs),
(319,14,o),
(315,14,o),
(312,14,cs),
(32,14,l),
(336,342,ls),
(340,347,o),
(338,350,o),
(332,350,cs),
(63,350,ls),
(60,350,o),
(56,348,o),
(56,344,cs),
(56,338,o),
(61,338,o),
(63,338,cs),
(313,338,l),
(9,8,ls),
(5,4,o),
(7,0,o),
(13,0,cs)
);
}
);
width = 368;
},
{
layerId = m003;
shapes = (
{
closed = 1;
nodes = (
(308,0,ls,{
name = "💚";
}),
(321,0,o),
(333,12,o),
(333,25,cs),
(333,50,o),
(311,50,o),
(308,50,cs),
(99,50,l),
(345,311,ls,{
name = "💚";
}),
(364,331,o),
(355,350,o),
(326,350,cs),
(84,350,ls),
(71,350,o),
(59,338,o),
(59,324,cs),
(59,300,o),
(80,300,o),
(84,300,cs),
(266,300,l),
(21,38,ls),
(2,17,o),
(7,0,o),
(31,0,cs,{
name = "💚";
})
);
}
);
width = 355;
}
);
metricLeft = n;
unicode = 122;
},
{
glyphname = zero;
lastChange = "2022-02-01 08:25:17 +0000";
layers = (
{
layerId = m002;
shapes = (
{
closed = 1;
nodes = (
(136,0,o),
(163,10,o),
(181,26,cs),
(298,130,o),
(385,307,o),
(385,464,cs),
(385,500,o),
(377,550,o),
(367,578,cs),
(356,608,o),
(340,644,o),
(312,659,cs),
(295,668,o),
(276,673,o),
(259,673,cs),
(240,673,o),
(219,668,o),
(202,659,cs),
(148,631,o),
(124,608,o),
(79,520,cs),
(58,479,o),
(40,424,o),
(29,381,cs),
(19,343,o),
(0,268,o),
(0,194,cs),
(0,112,o),
(17,58,o),
(49,25,cs),
(65,8,o),
(89,0,o),
(112,0,cs)
);
},
{
closed = 1;
nodes = (
(91,13,o),
(72,20,o),
(59,33,cs),
(28,64,o),
(14,114,o),
(14,194,cs),
(14,266,o),
(32,340,o),
(41,377,cs),
(51,420,o),
(72,474,o),
(92,514,cs),
(135,600,o),
(156,621,o),
(208,647,cs),
(224,655,o),
(242,659,o),
(259,659,cs),
(275,659,o),
(289,656,o),
(306,647,cs),
(330,634,o),
(344,603,o),
(355,574,cs),
(366,544,o),
(371,505,o),
(371,464,cs),
(371,310,o),
(285,141,o),
(173,36,cs),
(157,21,o),
(134,13,o),
(112,13,cs)
);
}
);
width = 385;
},
{
layerId = m003;
shapes = (
{
closed = 1;
nodes = (
(152,1,o),
(183,12,o),
(203,30,cs),
(320,135,o),
(401,309,o),
(401,456,cs),
(401,494,o),
(394,544,o),
(383,571,cs),
(364,618,o),
(346,646,o),
(322,657,cs),
(302,666,o),
(281,672,o),
(263,672,cs),
(245,672,o),
(222,668,o),
(201,657,cs,{
name = "💚";
}),
(144,627,o),
(120,599,o),
(77,518,cs),
(59,484,o),
(43,433,o),
(29,383,cs),
(11,320,o),
(0,252,o),
(0,202,cs),
(0,119,o),
(20,68,o),
(53,31,cs),
(70,12,o),
(97,1,o),
(125,1,cs,{
name = "❌";
})
);
},
{
closed = 1;
nodes = (
(109,51,o),
(98,55,o),
(88,65,cs),
(63,90,o),
(52,130,o),
(52,202,cs),
(52,246,o),
(58,300,o),
(76,371,cs),
(88,418,o),
(108,464,o),
(123,494,cs,{
name = "💚";
}),
(160,568,o),
(175,590,o),
(223,612,cs),
(236,618,o),
(249,621,o),
(263,621,cs),
(277,621,o),
(286,618,o),
(298,612,cs),
(312,605,o),
(322,589,o),
(335,553,cs),
(344,529,o),
(349,497,o),
(349,456,cs),
(349,320,o),
(276,166,o),
(169,68,cs),
(157,57,o),
(142,51,o),
(125,51,cs)
);
}
);
width = 401;
}
);
unicode = 48;
},
{
glyphname = one;
lastChange = "2022-02-01 08:25:17 +0000";
layers = (
{
layerId = m002;
shapes = (
{
closed = 1;
nodes = (
(10,0,o),
(12,2,o),
(13,5,c,{
name = "🔷";
}),
(132,666,ls),
(133,671,o),
(128,672,o),
(125,672,cs),
(122,672,o),
(120,670,o),
(119,667,c),
(0,6,l,{
name = "🔷";
}),
(0,4,o),
(0,0,o),
(7,0,cs)
);
}
);
width = 132;
},
{
layerId = m003;
shapes = (
{
closed = 1;
nodes = (
(46,0,o),
(49,18,o),
(49,20,cs),
(162,644,ls),
(165,661,o),
(152,673,o),
(137,673,cs),
(115,673,o),
(112,653,o),
(112,652,cs,{
name = "❌";
}),
(0,30,ls),
(-3,13,o),
(10,0,o),
(24,0,cs)
);
}
);
width = 162;
}
);
unicode = 49;
},
{
glyphname = two;
lastChange = "2022-02-01 08:25:17 +0000";
layers = (
{
layerId = m002;
shapes = (
{
closed = 1;
nodes = (
(6,0,ls),
(7,0,o),
(110,9,o),
(150,9,cs),
(189,9,o),
(224,6,o),
(259,4,cs),
(298,2,o),
(338,0,o),
(386,0,cs),
(390,0,o),
(392,2,o),
(392,6,cs),
(392,10,o),
(390,12,o),
(386,12,cs),
(338,12,o),
(298,14,o),
(260,17,cs),
(224,20,o),
(190,22,o),
(150,22,cs),
(114,22,o),
(74,20,o),
(26,15,c),
(98,78,o),
(156,146,o),
(193,192,cs),
(202,203,o),
(210,213,o),
(217,221,cs),
(295,311,o),
(325,355,o),
(374,439,cs),
(388,463,o),
(401,494,o),
(410,518,cs),
(416,534,o),
(424,560,o),
(420,596,cs),
(417,624,o),
(396,652,o),
(376,664,cs),
(366,670,o),
(346,672,o),
(329,672,cs),
(318,672,o),
(307,671,o),
(299,670,cs),
(280,668,o),
(250,658,o),
(235,652,cs,{
name = "❌";
}),
(205,640,o),
(176,624,o),
(152,606,c,{
name = "🔷";
}),
(150,605,o),
(150,603,o),
(150,601,cs),
(150,598,o),
(152,594,o),
(156,594,cs),
(157,594,o),
(159,595,o),
(160,596,c,{
name = "🔷";
}),
(184,612,o),
(212,629,o),
(239,640,cs),
(254,646,o),
(284,656,o),
(301,658,cs),
(308,659,o),
(318,660,o),
(329,660,cs),
(345,660,o),
(361,658,o),
(370,652,cs,{
name = "❌";
}),
(385,642,o),
(403,618,o),
(406,594,cs),
(410,562,o),
(404,538,o),
(398,522,cs),
(390,500,o),
(376,469,o),
(362,445,cs),
(314,362,o),
(285,319,o),
(207,229,cs),
(200,221,o),
(192,212,o),
(183,201,cs),
(143,152,o),
(81,78,o),
(2,11,c,{
name = "🔷";
}),
(0,10,o),
(0,8,o),
(0,6,cs),
(0,0,o),
(5,0,o),
(6,0,cs)
);
}
);
width = 420;
},
{
layerId = m003;
shapes = (
{
closed = 1;
nodes = (
(32,1,ls),
(42,2,o),
(124,8,o),
(162,8,cs),
(198,8,o),
(228,5,o),
(261,3,cs),
(298,1,o),
(340,0,o),
(385,0,cs),
(395,0,o),
(407,9,o),
(407,25,cs),
(407,40,o),
(395,49,o),
(385,49,cs),
(340,49,o),
(301,52,o),
(265,54,cs),
(231,56,o),
(198,58,o),
(161,58,cs),
(138,58,o),
(107,56,o),
(96,56,c),
(136,93,o),
(179,145,o),
(215,188,cs),
(224,199,o),
(231,208,o),
(238,216,cs),
(312,301,o),
(344,345,o),
(389,425,cs),
(402,448,o),
(416,478,o),
(423,500,cs),
(430,521,o),
(437,547,o),
(434,584,cs),
(432,610,o),
(411,645,o),
(383,662,cs),
(370,670,o),
(348,673,o),
(329,673,cs),
(316,673,o),
(300,672,o),
(292,670,cs),
(275,666,o),
(249,659,o),
(234,653,cs),
(206,642,o),
(177,622,o),
(150,606,cs),
(145,603,o),
(142,594,o),
(142,590,cs),
(142,574,o),
(150,564,o),
(159,562,cs),
(163,561,o),
(171,560,o),
(177,564,cs),
(201,580,o),
(228,596,o),
(253,606,cs),
(268,612,o),
(291,618,o),
(307,621,cs),
(313,622,o),
(324,623,o),
(332,623,cs),
(340,623,o),
(352,623,o),
(361,617,cs),
(376,607,o),
(383,587,o),
(384,574,cs),
(386,544,o),
(381,529,o),
(375,514,cs),
(367,493,o),
(354,466,o),
(341,444,cs),
(296,368,o),
(274,335,o),
(201,249,cs),
(195,242,o),
(186,232,o),
(178,222,cs),
(140,175,o),
(85,105,o),
(8,43,cs),
(3,39,o),
(0,33,o),
(0,21,cs),
(0,-4,o),
(12,-1,o),
(23,0,cs)
);
}
);
width = 435;
}
);
unicode = 50;
},
{
glyphname = three;
lastChange = "2022-02-01 08:25:17 +0000";
layers = (
{
layerId = m002;
shapes = (
{
closed = 1;
nodes = (
(101,0,o),
(209,16,o),
(302,158,cs),
(327,196,o),
(339,235,o),
(339,278,cs),
(339,295,o),
(337,312,o),
(334,330,cs),
(327,370,o),
(270,408,o),
(224,408,cs),
(190,408,o),
(175,405,o),
(158,400,cs),
(147,397,l),
(176,416,o),
(206,438,o),
(231,459,cs),
(259,483,o),
(303,526,o),
(318,557,cs),
(326,574,o),
(336,595,o),
(336,614,cs),
(336,623,o),
(333,633,o),
(328,642,cs),
(318,659,o),
(296,674,o),
(248,674,cs),
(222,674,o),
(176,665,o),
(153,658,cs),
(124,649,o),
(96,634,o),
(74,615,c),
(72,614,o),
(72,612,o),
(72,610,cs),
(72,606,o),
(74,604,o),
(78,604,cs),
(80,604,o),
(81,604,o),
(82,605,cs),
(103,626,o),
(130,637,o),
(157,646,cs),
(178,653,o),
(222,660,o),
(248,660,cs),
(292,660,o),
(308,649,o),
(318,634,cs),
(322,628,o),
(323,622,o),
(323,614,cs),
(323,598,o),
(314,580,o),
(306,563,cs),
(292,534,o),
(251,493,o),
(223,469,cs),
(181,433,o),
(122,398,o),
(81,371,cs),
(78,369,o),
(77,366,o),
(78,362,c),
(82,356,o),
(85,357,o),
(87,358,cs),
(106,366,ls),
(127,375,o),
(148,384,o),
(162,388,cs),
(180,393,o),
(194,394,o),
(224,394,cs),
(265,394,o),
(316,362,o),
(322,328,cs),
(325,310,o),
(326,294,o),
(326,278,cs),
(326,237,o),
(315,202,o),
(292,166,cs),
(204,28,o),
(100,14,o),
(80,14,cs),
(62,14,o),
(29,22,o),
(10,40,c),
(10,42,o),
(8,42,o),
(6,42,cs),
(2,42,o),
(0,40,o),
(0,36,cs),
(0,34,o),
(0,32,o),
(2,32,c),
(22,10,o),
(61,0,o),
(80,0,cs)
);
}
);
width = 339;
},
{
layerId = m003;
shapes = (
{
closed = 1;
nodes = (
(129,0,o),
(237,28,o),
(321,162,cs),
(343,197,o),
(357,240,o),
(357,282,cs),
(357,298,o),
(356,317,o),
(351,337,cs),
(342,372,o),
(312,402,o),
(271,416,cs),
(253,422,o),
(241,422,o),
(233,422,cs),
(230,422,l),
(235,426,o),
(255,443,o),
(262,449,cs),
(289,472,o),
(325,514,o),
(336,538,cs),
(343,554,o),
(354,576,o),
(354,595,cs),
(354,612,o),
(350,626,o),
(339,640,cs),
(326,656,o),
(303,673,o),
(252,673,cs),
(218,673,o),
(176,663,o),
(154,656,cs),
(126,647,o),
(100,631,o),
(78,614,cs,{
name = "💚";
}),
(73,610,o),
(68,604,o),
(68,594,cs),
(68,574,o),
(86,569,o),
(93,569,cs),
(94,569,o),
(101,569,o),
(105,572,cs),
(132,592,o),
(146,600,o),
(172,609,cs),
(189,615,o),
(232,623,o),
(248,623,cs),
(273,623,o),
(287,620,o),
(295,614,cs),
(302,609,o),
(304,603,o),
(304,597,cs),
(304,589,o),
(299,573,o),
(290,557,cs),
(275,530,o),
(243,497,o),
(216,475,cs),
(177,443,o),
(119,407,o),
(84,385,cs),
(76,380,o),
(71,365,o),
(75,353,cs,{
name = "💚";
}),
(83,330,o),
(98,336,o),
(104,338,cs),
(134,349,ls,{
name = "❌";
}),
(149,354,o),
(165,363,o),
(174,366,cs),
(191,372,o),
(218,372,o),
(229,372,cs),
(266,372,o),
(299,347,o),
(303,324,cs),
(306,308,o),
(307,297,o),
(307,282,cs),
(307,243,o),
(296,215,o),
(275,182,cs),
(202,67,o),
(109,50,o),
(95,50,cs),
(79,50,o),
(58,59,o),
(38,73,cs,{
name = "💚";
}),
(31,78,o),
(26,77,o),
(24,77,cs),
(11,77,o),
(-4,65,o),
(1,45,cs),
(2,41,o),
(2,38,o),
(9,32,cs,{
name = "💚";
}),
(20,22,o),
(54,0,o),
(94,0,cs)
);
}
);
width = 357;
}
);
unicode = 51;
},
{
glyphname = four;
lastChange = "2022-02-01 08:25:17 +0000";
layers = (
{
layerId = m002;
shapes = (
{
closed = 1;
nodes = (
(137,0,o),
(139,2,o),
(140,5,c,{
name = "🔷";
}),
(167,156,l),
(313,156,ls),
(314,156,o),
(320,156,o),
(320,162,cs),
(320,168,o),
(314,168,o),
(313,168,cs),
(169,168,l),
(201,342,l),
(201,342,o),
(201,342,o),
(201,343,cs),
(201,348,o),
(199,350,o),
(194,350,cs),
(188,350,o),
(189,347,o),
(188,344,cs),
(156,168,l),
(14,168,l),
(104,664,l),
(104,664,o),
(104,665,o),
(104,665,c,{
name = "🔷";
}),
(105,669,o),
(101,672,o),
(98,672,cs),
(92,672,o),
(92,668,o),
(92,667,cs),
(0,163,ls),
(-1,156,o),
(3,156,o),
(5,156,cs),
(154,156,l),
(127,7,l),
(127,6,ls),
(127,4,o),
(127,0,o),
(133,0,cs)
);
}
);
width = 320;
},
{
layerId = m003;
shapes = (
{
closed = 1;
nodes = (
(180,0,o),
(183,18,o),
(183,20,cs,{
name = "💚";
}),
(205,137,l),
(335,137,ls),
(339,137,o),
(361,137,o),
(361,162,cs),
(361,187,o),
(339,187,o),
(335,187,cs),
(214,187,l),
(234,301,ls),
(236,313,o),
(240,336,o),
(228,345,cs),
(224,348,o),
(218,350,o),
(213,350,cs),
(192,350,o),
(188,328,o),
(188,327,cs),
(162,187,l),
(57,187,l),
(139,639,l,{
name = "🔷";
}),
(140,642,o),
(141,647,o),
(141,647,c),
(144,660,o),
(128,673,o),
(115,673,cs),
(94,673,o),
(90,653,o),
(90,652,cs,{
name = "❌";
}),
(1,167,ls),
(-5,137,o),
(22,137,o),
(24,137,cs),
(153,137,l),
(135,38,l),
(133,24,l),
(133,10,o),
(144,0,o),
(158,0,cs)
);
}
);
width = 361;
}
);
unicode = 52;
},
{
glyphname = five;
lastChange = "2022-02-01 08:27:59 +0000";
layers = (
{
layerId = m002;
shapes = (
{
closed = 1;
nodes = (
(191,0,o),
(258,27,o),
(290,61,cs),
(313,85,o),
(338,134,o),
(341,161,cs),
(344,189,o),
(344,207,o),
(341,223,cs),
(335,258,o),
(327,284,o),
(301,313,cs),
(277,339,o),
(235,350,o),
(199,350,cs),
(180,350,o),
(145,347,o),
(129,342,cs),
(116,338,o),
(95,329,o),
(82,322,c),
(143,661,l),
(389,661,ls),
(390,661,o),
(395,661,o),
(395,667,cs),
(395,673,o),
(390,673,o),
(389,673,cs),
(137,673,ls),
(133,673,o),
(132,670,o),
(131,667,cs),
(67,313,ls),
(66,309,o),
(69,308,o),
(72,305,cs),
(73,304,ls),
(76,301,o),
(79,303,o),
(82,305,cs),
(94,313,o),
(117,324,o),
(133,330,cs),
(147,335,o),
(180,339,o),
(199,339,cs),
(233,339,o),
(269,328,o),
(291,305,cs),
(316,279,o),
(320,256,o),
(328,223,cs),
(332,206,o),
(332,190,o),
(329,163,cs),
(326,138,o),
(303,93,o),
(282,71,cs),
(250,37,o),
(187,12,o),
(142,12,cs),
(93,12,o),
(52,24,o),
(11,55,c,{
name = "🔷";
}),
(9,56,o),
(8,57,o),
(6,57,cs),
(2,57,o),
(0,54,o),
(0,50,cs),
(0,48,o),
(0,47,o),
(1,45,c,{
name = "🔷";
}),
(46,12,o),
(93,0,o),
(142,0,cs)
);
}
);
width = 395;
},
{
layerId = m003;
shapes = (
{
closed = 1;
nodes = (
(227,0,o),
(296,34,o),
(328,66,cs),
(368,106,o),
(379,137,o),
(382,171,cs),
(384,197,o),
(381,222,o),
(378,237,cs),
(371,270,o),
(351,300,o),
(324,321,cs),
(301,339,o),
(255,350,o),
(222,350,cs),
(204,350,o),
(174,347,o),
(157,343,cs),
(145,340,o),
(134,337,o),
(130,336,c),
(178,623,l),
(409,623,ls),
(413,623,o),
(433,623,o),
(433,647,cs),
(433,673,o),
(411,673,o),
(409,673,cs),
(156,673,ls),
(131,673,o),
(131,652,o),
(131,650,cs),
(71,297,ls),
(67,273,o),
(79,268,o),
(90,265,cs),
(94,264,ls),
(103,262,o),
(109,265,o),
(119,272,cs),
(127,278,o),
(146,288,o),
(166,293,cs),
(179,296,o),
(204,300,o),
(222,300,cs),
(249,300,o),
(277,294,o),
(292,282,cs),
(312,266,o),
(323,248,o),
(327,229,cs),
(330,215,o),
(334,191,o),
(332,175,cs),
(328,143,o),
(314,122,o),
(287,97,cs),
(256,68,o),
(193,50,o),
(168,50,cs),
(129,50,o),
(90,61,o),
(51,81,cs),
(49,82,o),
(35,94,o),
(33,95,c,{
name = "🔷";
}),
(22,103,o),
(-15,74,o),
(6,53,cs),
(7,52,o),
(16,45,o),
(19,43,cs),
(63,14,o),
(106,0,o),
(168,0,cs)
);
}
);
width = 433;
}
);
unicode = 53;
},
{
glyphname = six;
lastChange = "2022-02-01 08:25:17 +0000";
layers = (
{
layerId = m002;
shapes = (
{
closed = 1;
nodes = (
(169,0,o),
(222,30,o),
(247,65,cs),
(273,102,o),
(287,133,o),
(294,161,cs),
(299,181,o),
(301,212,o),
(301,231,cs),
(301,250,o),
(299,271,o),
(294,284,cs),
(276,332,o),
(234,350,o),
(187,350,cs),
(164,350,o),
(124,338,o),
(93,315,cs),
(64,293,o),
(32,242,o),
(12,190,c),
(14,274,o),
(48,367,o),
(79,427,cs),
(118,502,o),
(143,549,o),
(257,663,cs),
(258,664,o),
(259,665,o),
(259,667,cs),
(259,671,o),
(255,673,o),
(252,673,cs),
(250,673,o),
(249,673,o),
(247,671,cs),
(133,557,o),
(105,508,o),
(67,433,cs),
(35,370,o),
(0,271,o),
(0,184,cs),
(0,165,o),
(0,118,o),
(5,104,c),
(11,72,o),
(23,50,o),
(43,31,cs),
(62,13,o),
(91,0,o),
(133,0,cs)
);
},
{
closed = 1;
nodes = (
(94,12,o),
(71,25,o),
(51,41,cs),
(32,56,o),
(25,76,o),
(17,106,cs),
(15,114,o),
(14,130,o),
(13,147,c),
(29,220,o),
(65,279,o),
(101,305,cs),
(130,326,o),
(166,338,o),
(187,338,cs),
(231,338,o),
(268,322,o),
(282,280,cs),
(286,268,o),
(288,249,o),
(288,231,cs),
(288,212,o),
(287,183,o),
(282,163,cs),
(275,137,o),
(264,110,o),
(237,73,cs),
(213,40,o),
(165,12,o),
(133,12,cs)
);
}
);
width = 301;
},
{
layerId = m003;
shapes = (
{
closed = 1;
nodes = (
(199,0,o),
(259,36,o),
(285,70,cs),
(313,107,o),
(322,130,o),
(329,158,cs),
(335,181,o),
(339,199,o),
(339,219,cs),
(339,253,o),
(336,263,o),
(329,282,cs),
(313,326,o),
(270,350,o),
(206,350,cs),
(183,350,o),
(133,340,o),
(102,318,cs),
(91,310,o),
(74,296,o),
(62,283,c),
(68,309,o),
(83,360,o),
(115,420,cs),
(155,495,o),
(174,518,o),
(288,632,cs),
(291,635,o),
(294,642,o),
(294,647,cs),
(294,667,o),
(277,673,o),
(268,673,cs),
(261,673,o),
(254,670,o),
(251,667,cs),
(137,553,o),
(107,517,o),
(68,442,cs),
(35,379,o),
(0,278,o),
(0,191,cs),
(0,165,o),
(0,127,o),
(6,106,cs,{
name = "💚";
}),
(18,64,o),
(31,48,o),
(54,29,cs),
(77,10,o),
(110,0,o),
(152,0,cs)
);
},
{
closed = 1;
nodes = (
(116,50,o),
(102,56,o),
(84,70,cs),
(64,85,o),
(61,97,o),
(55,120,cs),
(53,128,o),
(51,142,o),
(51,154,c),
(66,225,o),
(108,261,o),
(130,276,cs),
(161,297,o),
(191,299,o),
(207,300,cs),
(223,301,o),
(270,304,o),
(283,261,cs),
(286,251,o),
(288,236,o),
(288,222,cs),
(288,203,o),
(282,175,o),
(279,166,cs),
(272,145,o),
(268,133,o),
(244,100,cs),
(226,75,o),
(183,50,o),
(152,50,cs)
);
}
);
width = 339;
}
);
unicode = 54;
},
{
glyphname = seven;
lastChange = "2022-02-01 08:25:17 +0000";
layers = (
{
layerId = m002;
shapes = (
{
closed = 1;
nodes = (
(30,0,o),
(32,1,o),
(33,4,cs),
(121,268,o),
(171,385,o),
(326,663,cs),
(331,672,o),
(323,672,o),
(322,672,cs),
(6,672,ls),
(2,672,o),
(0,670,o),
(0,666,cs),
(0,660,o),
(4,660,o),
(6,660,cs),
(309,660,l),
(156,388,o),
(112,268,o),
(21,8,c),
(21,8,o),
(20,7,o),
(20,6,cs),
(20,2,o),
(24,0,o),
(27,0,cs)
);
}
);
width = 328;
},
{
layerId = m003;
shapes = (
{
closed = 1;
nodes = (
(55,0,o),
(64,4,o),
(68,16,cs),
(151,265,o),
(227,360,o),
(343,637,cs,{
name = "💚";
}),
(358,673,o),
(328,673,o),
(322,673,cs),
(24,673,ls),
(10,673,o),
(0,663,o),
(0,648,cs),
(0,623,o),
(22,623,o),
(24,623,cs),
(277,623,l),
(145,386,o),
(103,269,o),
(21,34,c,{
name = "🔷";
}),
(19,31,o),
(18,28,o),
(18,24,cs),
(18,9,o),
(30,0,o),
(44,0,cs)
);
}
);
width = 346;
}
);
unicode = 55;
},
{
glyphname = eight;
lastChange = "2022-02-01 08:25:17 +0000";
layers = (
{
layerId = m002;
shapes = (
{
closed = 1;
nodes = (
(263,0,o),
(257,104,o),
(255,146,cs),
(254,165,ls,{
name = "💚";
}),
(250,235,o),
(200,292,o),
(159,341,cs),
(148,354,l),
(159,364,ls),
(193,395,o),
(352,541,o),
(352,606,cs),
(352,610,o),
(350,619,o),
(349,622,cs),
(341,647,o),
(294,667,o),
(264,671,cs,{
name = "💚";
}),
(257,672,o),
(240,673,o),
(233,673,cs),
(198,673,o),
(167,661,o),
(147,650,cs),
(107,628,o),
(61,564,o),
(61,507,cs),
(61,449,o),
(94,401,o),
(131,355,c),
(111,335,o),
(94,318,o),
(83,306,cs),
(42,261,o),
(14,193,o),
(4,161,cs),
(1,151,o),
(0,140,o),
(0,130,cs),
(0,101,o),
(8,72,o),
(20,54,cs),
(33,34,o),
(71,0,o),
(126,0,cs)
);
},
{
closed = 1;
nodes = (
(76,12,o),
(43,41,o),
(30,62,cs),
(20,78,o),
(13,103,o),
(13,130,cs),
(13,140,o),
(14,149,o),
(16,159,cs),
(22,190,o),
(52,253,o),
(93,298,cs),
(103,309,o),
(119,325,o),
(139,345,c),
(148,333,ls),
(189,278,o),
(232,230,o),
(241,165,cs,{
name = "💚";
}),
(242,158,o),
(242,152,o),
(242,146,cs),
(242,65,o),
(171,12,o),
(126,12,cs)
);
},
{
closed = 1;
nodes = (
(104,409,o),
(74,454,o),
(74,507,cs),
(74,560,o),
(117,617,o),
(153,638,cs),
(172,649,o),
(200,660,o),
(233,660,cs),
(240,660,o),
(255,660,o),
(261,659,cs,{
name = "💚";
}),
(289,654,o),
(331,637,o),
(337,618,cs),
(338,615,o),
(339,609,o),
(339,606,cs),
(339,544,o),
(173,394,o),
(150,373,cs),
(140,364,l)
);
}
);
width = 352;
},
{
layerId = m003;
shapes = (
{
closed = 1;
nodes = (
(287,0,o),
(280,123,o),
(278,159,cs),
(277,176,ls,{
name = "💚";
}),
(273,243,o),
(230,294,o),
(196,337,cs),
(185,351,l,{
name = "❌";
}),
(200,365,ls),
(238,401,o),
(370,524,o),
(370,588,cs),
(370,594,o),
(369,601,o),
(367,608,cs),
(356,645,o),
(301,667,o),
(272,671,cs,{
name = "💚";
}),
(265,672,o),
(249,673,o),
(242,673,cs),
(200,673,o),
(176,661,o),
(155,651,cs,{
name = "❌";
}),
(113,631,o),
(65,574,o),
(59,511,cs),
(53,450,o),
(83,402,o),
(117,356,c),
(97,336,o),
(89,327,o),
(78,315,cs),
(37,270,o),
(12,199,o),
(2,167,cs),
(-1,157,o),
(0,135,o),
(1,125,cs),
(3,101,o),
(12,74,o),
(26,55,cs),
(40,36,o),
(80,0,o),
(135,0,cs)
);
},
{
closed = 1;
nodes = (
(110,51,o),
(91,60,o),
(76,74,cs),
(58,91,o),
(54,112,o),
(52,125,cs),
(50,136,o),
(50,148,o),
(52,158,cs),
(61,205,o),
(93,257,o),
(118,285,cs),
(125,293,o),
(138,306,o),
(148,316,c),
(158,303,ls),
(166,293,o),
(215,231,o),
(226,174,cs,{
name = "💚";
}),
(227,169,o),
(228,160,o),
(228,156,cs),
(228,80,o),
(157,47,o),
(134,49,cs)
);
},
{
closed = 1;
nodes = (
(118,437,o),
(107,469,o),
(108,501,cs),
(109,545,o),
(146,592,o),
(180,608,cs),
(201,618,o),
(218,623,o),
(242,623,cs),
(256,623,o),
(267,622,o),
(277,619,cs,{
name = "💚";
}),
(304,611,o),
(316,600,o),
(318,595,cs),
(319,592,o),
(319,590,o),
(319,587,cs),
(319,540,o),
(165,401,o),
(164,400,cs),
(154,391,l)
);
}
);
width = 370;
}
);
unicode = 56;
},
{
glyphname = nine;
lastChange = "2022-02-01 08:25:17 +0000";
layers = (
{
layerId = m002;
shapes = (
{
closed = 1;
nodes = (
(180,0,o),
(183,2,o),
(184,6,c),
(205,234,o),
(219,287,o),
(247,411,cs),
(302,654,l),
(302,656,o),
(300,658,o),
(299,659,cs),
(287,671,o),
(251,673,o),
(222,673,cs),
(202,673,o),
(182,671,o),
(171,668,cs),
(38,632,o),
(12,539,o),
(2,442,cs),
(1,432,o),
(0,421,o),
(0,410,cs),
(0,384,o),
(6,358,o),
(22,345,cs),
(32,337,o),
(47,333,o),
(64,333,cs),
(81,333,o),
(101,337,o),
(120,348,cs,{
name = "❌";
}),
(154,368,o),
(182,398,o),
(198,422,cs),
(215,447,o),
(240,492,o),
(266,550,c),
(235,414,ls),
(207,290,o),
(170,237,o),
(170,7,cs),
(170,2,o),
(174,0,o),
(177,0,cs)
);
},
{
closed = 1;
nodes = (
(49,346,o),
(39,348,o),
(30,355,cs),
(18,365,o),
(13,386,o),
(13,410,cs),
(13,420,o),
(14,430,o),
(15,440,cs),
(25,536,o),
(46,627,o),
(175,656,cs),
(184,658,o),
(202,660,o),
(222,660,cs),
(248,660,o),
(274,657,o),
(287,651,c,{
name = "❌";
}),
(270,592,ls,{
name = "💚";
}),
(247,514,o),
(206,460,o),
(186,428,cs),
(172,406,o),
(146,378,o),
(114,360,cs),
(96,350,o),
(79,346,o),
(64,346,cs)
);
}
);
width = 302;
},
{
layerId = m003;
shapes = (
{
closed = 1;
nodes = (
(199,0,o),
(210,13,o),
(211,22,cs,{
name = "💚";
}),
(238,266,o),
(249,313,o),
(272,413,cs),
(322,634,ls,{
name = "💚";
}),
(324,644,o),
(315,654,o),
(308,658,cs),
(292,667,o),
(261,673,o),
(232,673,cs),
(215,673,o),
(194,672,o),
(182,669,cs),
(47,635,o),
(12,542,o),
(2,442,cs),
(1,432,o),
(0,421,o),
(0,410,cs),
(0,379,o),
(7,352,o),
(25,334,cs),
(37,322,o),
(59,316,o),
(74,316,cs),
(97,316,o),
(124,321,o),
(142,332,cs),
(168,348,o),
(179,359,o),
(199,381,cs),
(208,391,o),
(214,398,o),
(219,406,c),
(212,376,ls),
(185,262,o),
(178,171,o),
(160,26,cs),
(159,18,o),
(165,0,o),
(187,0,cs)
);
},
{
closed = 1;
nodes = (
(71,364,o),
(64,366,o),
(58,373,cs),
(50,383,o),
(49,400,o),
(51,417,cs),
(52,425,o),
(53,434,o),
(54,442,cs),
(64,521,o),
(81,581,o),
(172,615,cs),
(180,618,o),
(202,623,o),
(219,623,cs),
(233,623,o),
(257,622,o),
(266,620,c),
(256,586,ls,{
name = "💚";
}),
(230,499,o),
(199,466,o),
(179,435,cs),
(168,418,o),
(149,396,o),
(124,381,cs),
(111,373,o),
(96,367,o),
(88,366,cs)
);
}
);
width = 322;
}
);
unicode = 57;
},
{
glyphname = period;
lastChange = "2022-02-01 08:25:17 +0000";
layers = (
{
layerId = m002;
shapes = (
{
closed = 1;
nodes = (
(21,0,o),
(27,6,o),
(27,12,cs),
(27,22,o),
(20,27,o),
(14,27,cs),
(6,27,o),
(0,21,o),
(0,12,cs),
(0,8,o),
(4,0,o),
(14,0,cs)
);
}
);
width = 27;
},
{
layerId = m003;
shapes = (
{
closed = 1;
nodes = (
(38,0,o),
(50,12,o),
(50,25,cs),
(50,40,o),
(38,50,o),
(25,50,cs),
(10,50,o),
(0,40,o),
(0,25,cs),
(0,12,o),
(10,0,o),
(25,0,cs)
);
}
);
width = 50;
}
);
unicode = 46;
},
{
glyphname = comma;
lastChange = "2022-02-01 08:25:17 +0000";
layers = (
{
layerId = m002;
shapes = (
{
closed = 1;
nodes = (
(9,-20,o),
(11,-19,o),
(11,-19,c),
(20,-11,o),
(27,8,o),
(27,14,cs),
(27,23,o),
(19,28,o),
(13,28,cs),
(6,28,o),
(0,22,o),
(0,14,cs),
(0,8,o),
(4,1,o),
(13,0,c),
(10,-5,o),
(8,-8,o),
(5,-11,cs),
(4,-12,o),
(3,-14,o),
(3,-15,cs),
(3,-17,o),
(6,-20,o),
(8,-20,cs)
);
}
);
width = 27;
},
{
layerId = m003;
shapes = (
{
closed = 1;
nodes = (
(19,-37,o),
(21,-36,o),
(21,-36,c),
(38,-21,o),
(51,14,o),
(51,26,cs),
(51,42,o),
(36,51,o),
(25,51,cs),
(12,51,o),
(0,40,o),
(0,26,cs),
(0,14,o),
(8,1,o),
(25,0,c),
(19,-10,o),
(16,-15,o),
(10,-21,cs),
(8,-23,o),
(6,-24,o),
(6,-28,cs),
(6,-32,o),
(12,-37,o),
(15,-37,cs)
);
}
);
width = 51;
}
);
unicode = 44;
},
{
glyphname = hyphen;
lastChange = "2022-02-01 08:25:17 +0000";
layers = (
{
layerId = m002;
shapes = (
{
closed = 1;
nodes = (
(251,228,ls),
(255,228,o),
(258,230,o),
(258,234,cs),
(258,241,o),
(252,241,o),
(251,241,cs),
(6,241,ls),
(2,241,o),
(0,238,o),
(0,234,cs),
(0,228,o),
(4,228,o),
(6,228,cs)
);
}
